{
    "asset" : {
        "generator" : "Khronos glTF Blender I/O v3.3.36",
        "version" : "2.0"
    },
    "scene" : 0,
    "scenes" : [
        {
            "name" : "Scene",
            "nodes" : [
                0
            ]
        }
    ],
    "nodes" : [
        {
            "mesh" : 0,
            "name" : "apartment_003",
            "rotation" : [
                0.7071068286895752,
                0,
                0,
                0.7071067094802856
            ]
        }
    ],
    "meshes" : [
        {
            "name" : "apartment_003",
            "primitives" : [
                {
                    "attributes" : {
                        "POSITION" : 0,
                        "NORMAL" : 1,
                        "TANGENT" : 2,
                        "TEXCOORD_0" : 3
                    },
                    "indices" : 4
                }
            ]
        }
    ],
    "accessors" : [
        {
            "bufferView" : 0,
            "componentType" : 5126,
            "count" : 2031,
            "max" : [
                3.342655897140503,
                7.385194778442383,
                3.0714359283447266
            ],
            "min" : [
                -3.342813014984131,
                -0.05412200093269348,
                -3.0714340209960938
            ],
            "type" : "VEC3"
        },
        {
            "bufferView" : 1,
            "componentType" : 5126,
            "count" : 2031,
            "type" : "VEC3"
        },
        {
            "bufferView" : 2,
            "componentType" : 5126,
            "count" : 2031,
            "type" : "VEC4"
        },
        {
            "bufferView" : 3,
            "componentType" : 5126,
            "count" : 2031,
            "type" : "VEC2"
        },
        {
            "bufferView" : 4,
            "componentType" : 5123,
            "count" : 3303,
            "type" : "SCALAR"
        }
    ],
    "bufferViews" : [
        {
            "buffer" : 0,
            "byteLength" : 24372,
            "byteOffset" : 0,
            "target" : 34962
        },
        {
            "buffer" : 0,
            "byteLength" : 24372,
            "byteOffset" : 24372,
            "target" : 34962
        },
        {
            "buffer" : 0,
            "byteLength" : 32496,
            "byteOffset" : 48744,
            "target" : 34962
        },
        {
            "buffer" : 0,
            "byteLength" : 16248,
            "byteOffset" : 81240,
            "target" : 34962
        },
        {
            "buffer" : 0,
            "byteLength" : 6606,
            "byteOffset" : 97488,
            "target" : 34963
        }
    ],
    "buffers" : [
        {
            "byteLength" : 104096,
            "uri" : "data:application/octet-stream;base64,"
        }
    ]
}
