{
    "asset" : {
        "generator" : "Khronos glTF Blender I/O v3.3.36",
        "version" : "2.0"
    },
    "scene" : 0,
    "scenes" : [
        {
            "name" : "Scene",
            "nodes" : [
                0
            ]
        }
    ],
    "nodes" : [
        {
            "mesh" : 0,
            "name" : "park_001",
            "rotation" : [
                0.7071068286895752,
                0,
                0,
                0.7071067094802856
            ]
        }
    ],
    "meshes" : [
        {
            "name" : "park_001",
            "primitives" : [
                {
                    "attributes" : {
                        "POSITION" : 0,
                        "NORMAL" : 1,
                        "TANGENT" : 2,
                        "TEXCOORD_0" : 3
                    },
                    "indices" : 4
                }
            ]
        }
    ],
    "accessors" : [
        {
            "bufferView" : 0,
            "componentType" : 5126,
            "count" : 4455,
            "max" : [
                8,
                4.162236213684082,
                8.000000953674316
            ],
            "min" : [
                -8.000000953674316,
                -0.685791015625,
                -8
            ],
            "type" : "VEC3"
        },
        {
            "bufferView" : 1,
            "componentType" : 5126,
            "count" : 4455,
            "type" : "VEC3"
        },
        {
            "bufferView" : 2,
            "componentType" : 5126,
            "count" : 4455,
            "type" : "VEC4"
        },
        {
            "bufferView" : 3,
            "componentType" : 5126,
            "count" : 4455,
            "type" : "VEC2"
        },
        {
            "bufferView" : 4,
            "componentType" : 5123,
            "count" : 6510,
            "type" : "SCALAR"
        }
    ],
    "bufferViews" : [
        {
            "buffer" : 0,
            "byteLength" : 53460,
            "byteOffset" : 0,
            "target" : 34962
        },
        {
            "buffer" : 0,
            "byteLength" : 53460,
            "byteOffset" : 53460,
            "target" : 34962
        },
        {
            "buffer" : 0,
            "byteLength" : 71280,
            "byteOffset" : 106920,
            "target" : 34962
        },
        {
            "buffer" : 0,
            "byteLength" : 35640,
            "byteOffset" : 178200,
            "target" : 34962
        },
        {
            "buffer" : 0,
            "byteLength" : 13020,
            "byteOffset" : 213840,
            "target" : 34963
        }
    ],
    "buffers" : [
        {
            "byteLength" : 226860,
            "uri" : "data:application/octet-stream;base64,"
        }
    ]
}
