{
    "asset" : {
        "generator" : "Khronos glTF Blender I/O v3.3.36",
        "version" : "2.0"
    },
    "scene" : 0,
    "scenes" : [
        {
            "name" : "Scene",
            "nodes" : [
                0
            ]
        }
    ],
    "nodes" : [
        {
            "mesh" : 0,
            "name" : "park_004",
            "rotation" : [
                0.7071068286895752,
                0,
                0,
                0.7071067094802856
            ]
        }
    ],
    "meshes" : [
        {
            "name" : "park_004",
            "primitives" : [
                {
                    "attributes" : {
                        "POSITION" : 0,
                        "NORMAL" : 1,
                        "TANGENT" : 2,
                        "TEXCOORD_0" : 3
                    },
                    "indices" : 4
                }
            ]
        }
    ],
    "accessors" : [
        {
            "bufferView" : 0,
            "componentType" : 5126,
            "count" : 4794,
            "max" : [
                8.000001907348633,
                4.26174783706665,
                8.000001907348633
            ],
            "min" : [
                -8.000000953674316,
                -0.8832640051841736,
                -8.000001907348633
            ],
            "type" : "VEC3"
        },
        {
            "bufferView" : 1,
            "componentType" : 5126,
            "count" : 4794,
            "type" : "VEC3"
        },
        {
            "bufferView" : 2,
            "componentType" : 5126,
            "count" : 4794,
            "type" : "VEC4"
        },
        {
            "bufferView" : 3,
            "componentType" : 5126,
            "count" : 4794,
            "type" : "VEC2"
        },
        {
            "bufferView" : 4,
            "componentType" : 5123,
            "count" : 7713,
            "type" : "SCALAR"
        }
    ],
    "bufferViews" : [
        {
            "buffer" : 0,
            "byteLength" : 57528,
            "byteOffset" : 0,
            "target" : 34962
        },
        {
            "buffer" : 0,
            "byteLength" : 57528,
            "byteOffset" : 57528,
            "target" : 34962
        },
        {
            "buffer" : 0,
            "byteLength" : 76704,
            "byteOffset" : 115056,
            "target" : 34962
        },
        {
            "buffer" : 0,
            "byteLength" : 38352,
            "byteOffset" : 191760,
            "target" : 34962
        },
        {
            "buffer" : 0,
            "byteLength" : 15426,
            "byteOffset" : 230112,
            "target" : 34963
        }
    ],
    "buffers" : [
        {
            "byteLength" : 245540,
            "uri" : "data:application/octet-stream;base64,"
        }
    ]
}
