{
    "asset" : {
        "generator" : "Khronos glTF Blender I/O v3.3.36",
        "version" : "2.0"
    },
    "scene" : 0,
    "scenes" : [
        {
            "name" : "Scene",
            "nodes" : [
                0
            ]
        }
    ],
    "nodes" : [
        {
            "mesh" : 0,
            "name" : "apartment_008",
            "rotation" : [
                0.7071068286895752,
                0,
                0,
                0.7071067094802856
            ]
        }
    ],
    "meshes" : [
        {
            "name" : "apartment_008",
            "primitives" : [
                {
                    "attributes" : {
                        "POSITION" : 0,
                        "NORMAL" : 1,
                        "TANGENT" : 2,
                        "TEXCOORD_0" : 3
                    },
                    "indices" : 4
                }
            ]
        }
    ],
    "accessors" : [
        {
            "bufferView" : 0,
            "componentType" : 5126,
            "count" : 3481,
            "max" : [
                3.4108591079711914,
                7.262907981872559,
                3.18400502204895
            ],
            "min" : [
                -3.4108591079711914,
                -0.09102100133895874,
                -3.1839439868927
            ],
            "type" : "VEC3"
        },
        {
            "bufferView" : 1,
            "componentType" : 5126,
            "count" : 3481,
            "type" : "VEC3"
        },
        {
            "bufferView" : 2,
            "componentType" : 5126,
            "count" : 3481,
            "type" : "VEC4"
        },
        {
            "bufferView" : 3,
            "componentType" : 5126,
            "count" : 3481,
            "type" : "VEC2"
        },
        {
            "bufferView" : 4,
            "componentType" : 5123,
            "count" : 5289,
            "type" : "SCALAR"
        }
    ],
    "bufferViews" : [
        {
            "buffer" : 0,
            "byteLength" : 41772,
            "byteOffset" : 0,
            "target" : 34962
        },
        {
            "buffer" : 0,
            "byteLength" : 41772,
            "byteOffset" : 41772,
            "target" : 34962
        },
        {
            "buffer" : 0,
            "byteLength" : 55696,
            "byteOffset" : 83544,
            "target" : 34962
        },
        {
            "buffer" : 0,
            "byteLength" : 27848,
            "byteOffset" : 139240,
            "target" : 34962
        },
        {
            "buffer" : 0,
            "byteLength" : 10578,
            "byteOffset" : 167088,
            "target" : 34963
        }
    ],
    "buffers" : [
        {
            "byteLength" : 177668,
            "uri" : "data:application/octet-stream;base64,"
        }
    ]
}
