{
    "asset" : {
        "generator" : "Khronos glTF Blender I/O v3.3.36",
        "version" : "2.0"
    },
    "scene" : 0,
    "scenes" : [
        {
            "name" : "Scene",
            "nodes" : [
                0
            ]
        }
    ],
    "nodes" : [
        {
            "mesh" : 0,
            "name" : "apartment_005",
            "rotation" : [
                0.7071068286895752,
                0,
                0,
                0.7071067094802856
            ]
        }
    ],
    "meshes" : [
        {
            "name" : "apartment_005",
            "primitives" : [
                {
                    "attributes" : {
                        "POSITION" : 0,
                        "NORMAL" : 1,
                        "TANGENT" : 2,
                        "TEXCOORD_0" : 3
                    },
                    "indices" : 4
                }
            ]
        }
    ],
    "accessors" : [
        {
            "bufferView" : 0,
            "componentType" : 5126,
            "count" : 2563,
            "max" : [
                3.741328001022339,
                6.225430011749268,
                3.1839559078216553
            ],
            "min" : [
                -3.080389976501465,
                -0.0772320032119751,
                -3.1839439868927
            ],
            "type" : "VEC3"
        },
        {
            "bufferView" : 1,
            "componentType" : 5126,
            "count" : 2563,
            "type" : "VEC3"
        },
        {
            "bufferView" : 2,
            "componentType" : 5126,
            "count" : 2563,
            "type" : "VEC4"
        },
        {
            "bufferView" : 3,
            "componentType" : 5126,
            "count" : 2563,
            "type" : "VEC2"
        },
        {
            "bufferView" : 4,
            "componentType" : 5123,
            "count" : 3834,
            "type" : "SCALAR"
        }
    ],
    "bufferViews" : [
        {
            "buffer" : 0,
            "byteLength" : 30756,
            "byteOffset" : 0,
            "target" : 34962
        },
        {
            "buffer" : 0,
            "byteLength" : 30756,
            "byteOffset" : 30756,
            "target" : 34962
        },
        {
            "buffer" : 0,
            "byteLength" : 41008,
            "byteOffset" : 61512,
            "target" : 34962
        },
        {
            "buffer" : 0,
            "byteLength" : 20504,
            "byteOffset" : 102520,
            "target" : 34962
        },
        {
            "buffer" : 0,
            "byteLength" : 7668,
            "byteOffset" : 123024,
            "target" : 34963
        }
    ],
    "buffers" : [
        {
            "byteLength" : 130692,
            "uri" : "data:application/octet-stream;base64,"
        }
    ]
}
