{
    "asset" : {
        "generator" : "Khronos glTF Blender I/O v3.3.36",
        "version" : "2.0"
    },
    "scene" : 0,
    "scenes" : [
        {
            "name" : "Scene",
            "nodes" : [
                0
            ]
        }
    ],
    "nodes" : [
        {
            "mesh" : 0,
            "name" : "apartment_1_003",
            "rotation" : [
                0.7071068286895752,
                0,
                0,
                0.7071067094802856
            ]
        }
    ],
    "meshes" : [
        {
            "name" : "apartment_1_003",
            "primitives" : [
                {
                    "attributes" : {
                        "POSITION" : 0,
                        "NORMAL" : 1,
                        "TANGENT" : 2,
                        "TEXCOORD_0" : 3
                    },
                    "indices" : 4
                }
            ]
        }
    ],
    "accessors" : [
        {
            "bufferView" : 0,
            "componentType" : 5126,
            "count" : 1522,
            "max" : [
                4.241808891296387,
                22.513036727905273,
                4.203828811645508
            ],
            "min" : [
                -4.241803169250488,
                -7.999999979801942e-06,
                -4.20381498336792
            ],
            "type" : "VEC3"
        },
        {
            "bufferView" : 1,
            "componentType" : 5126,
            "count" : 1522,
            "type" : "VEC3"
        },
        {
            "bufferView" : 2,
            "componentType" : 5126,
            "count" : 1522,
            "type" : "VEC4"
        },
        {
            "bufferView" : 3,
            "componentType" : 5126,
            "count" : 1522,
            "type" : "VEC2"
        },
        {
            "bufferView" : 4,
            "componentType" : 5123,
            "count" : 2877,
            "type" : "SCALAR"
        }
    ],
    "bufferViews" : [
        {
            "buffer" : 0,
            "byteLength" : 18264,
            "byteOffset" : 0,
            "target" : 34962
        },
        {
            "buffer" : 0,
            "byteLength" : 18264,
            "byteOffset" : 18264,
            "target" : 34962
        },
        {
            "buffer" : 0,
            "byteLength" : 24352,
            "byteOffset" : 36528,
            "target" : 34962
        },
        {
            "buffer" : 0,
            "byteLength" : 12176,
            "byteOffset" : 60880,
            "target" : 34962
        },
        {
            "buffer" : 0,
            "byteLength" : 5754,
            "byteOffset" : 73056,
            "target" : 34963
        }
    ],
    "buffers" : [
        {
            "byteLength" : 78812,
            "uri" : "data:application/octet-stream;base64,"
        }
    ]
}
