{
    "asset" : {
        "generator" : "Khronos glTF Blender I/O v3.3.36",
        "version" : "2.0"
    },
    "scene" : 0,
    "scenes" : [
        {
            "name" : "Scene",
            "nodes" : [
                0
            ]
        }
    ],
    "nodes" : [
        {
            "mesh" : 0,
            "name" : "apartment_001",
            "rotation" : [
                0.7071068286895752,
                0,
                0,
                0.7071067094802856
            ]
        }
    ],
    "meshes" : [
        {
            "name" : "apartment_001",
            "primitives" : [
                {
                    "attributes" : {
                        "POSITION" : 0,
                        "NORMAL" : 1,
                        "TANGENT" : 2,
                        "TEXCOORD_0" : 3
                    },
                    "indices" : 4
                }
            ]
        }
    ],
    "accessors" : [
        {
            "bufferView" : 0,
            "componentType" : 5126,
            "count" : 3162,
            "max" : [
                3.410156011581421,
                7.262905120849609,
                3.0738489627838135
            ],
            "min" : [
                -3.410156011581421,
                -0.09101399779319763,
                -3.0738470554351807
            ],
            "type" : "VEC3"
        },
        {
            "bufferView" : 1,
            "componentType" : 5126,
            "count" : 3162,
            "type" : "VEC3"
        },
        {
            "bufferView" : 2,
            "componentType" : 5126,
            "count" : 3162,
            "type" : "VEC4"
        },
        {
            "bufferView" : 3,
            "componentType" : 5126,
            "count" : 3162,
            "type" : "VEC2"
        },
        {
            "bufferView" : 4,
            "componentType" : 5123,
            "count" : 4857,
            "type" : "SCALAR"
        }
    ],
    "bufferViews" : [
        {
            "buffer" : 0,
            "byteLength" : 37944,
            "byteOffset" : 0,
            "target" : 34962
        },
        {
            "buffer" : 0,
            "byteLength" : 37944,
            "byteOffset" : 37944,
            "target" : 34962
        },
        {
            "buffer" : 0,
            "byteLength" : 50592,
            "byteOffset" : 75888,
            "target" : 34962
        },
        {
            "buffer" : 0,
            "byteLength" : 25296,
            "byteOffset" : 126480,
            "target" : 34962
        },
        {
            "buffer" : 0,
            "byteLength" : 9714,
            "byteOffset" : 151776,
            "target" : 34963
        }
    ],
    "buffers" : [
        {
            "byteLength" : 161492,
            "uri" : "data:application/octet-stream;base64,"
        }
    ]
}
