# Blender 4.3.2
# www.blender.org
mtllib Car_Hatch_C_Wheel.mtl
o Car_Hatch_C_wheelRL.001
v 0.155377 0.172714 -0.071540
v 0.155377 0.132190 -0.132190
v 0.131227 0.136219 -0.074832
v 0.155377 0.071541 -0.172714
v 0.155377 -0.000000 -0.298541
v 0.000180 -0.000000 -0.298541
v 0.155377 0.114247 -0.275816
v 0.000180 0.114247 -0.275816
v 0.155377 0.211101 -0.211100
v 0.000180 0.211101 -0.211100
v 0.155377 0.275816 -0.114247
v 0.000180 0.275816 -0.114247
v 0.155377 0.298541 -0.000000
v 0.000180 0.298541 -0.000000
v 0.155377 0.275816 0.114247
v 0.000180 0.275816 0.114247
v 0.155377 0.211101 0.211101
v 0.000180 0.211101 0.211101
v 0.155377 0.114247 0.275816
v 0.000179 0.114247 0.275816
v 0.155377 -0.000000 0.298541
v 0.000179 -0.000000 0.298541
v 0.155377 -0.114247 0.275816
v 0.000179 -0.114247 0.275816
v 0.155377 -0.211100 0.211101
v 0.000179 -0.211100 0.211101
v 0.155377 -0.275816 0.114247
v 0.000179 -0.275816 0.114247
v 0.155377 -0.298541 -0.000000
v 0.000179 -0.298541 -0.000000
v 0.155377 -0.275816 -0.114246
v 0.000180 -0.275816 -0.114247
v 0.155377 -0.211100 -0.211100
v 0.000180 -0.211100 -0.211100
v 0.155377 -0.114247 -0.275816
v 0.000180 -0.114246 -0.275816
v 0.155377 -0.000000 -0.186944
v 0.155377 0.186945 -0.000000
v 0.155377 0.172714 0.071541
v 0.155377 0.132190 0.132190
v 0.155377 0.071541 0.172715
v 0.155377 -0.000000 0.186945
v 0.155377 -0.071541 0.172715
v 0.155377 -0.132190 0.132190
v 0.155377 -0.172714 0.071541
v 0.155377 -0.186945 -0.000000
v 0.155377 -0.172714 -0.071540
v 0.155377 -0.132190 -0.132190
v 0.155377 -0.071540 -0.172714
v 0.131227 0.097213 -0.121265
v 0.131227 0.043407 -0.149236
v 0.131227 -0.017007 -0.154487
v 0.131227 0.154487 -0.017007
v 0.131227 0.149236 0.043407
v 0.131227 0.121265 0.097213
v 0.131227 0.074832 0.136219
v 0.131227 0.017007 0.154488
v 0.131227 -0.043407 0.149236
v 0.131227 -0.097213 0.121265
v 0.131227 -0.136219 0.074833
v 0.131227 -0.154487 0.017008
v 0.131227 -0.149236 -0.043407
v 0.131227 -0.121265 -0.097213
v 0.131227 -0.074832 -0.136219
v 0.152603 0.118796 -0.049207
v 0.152603 0.090923 -0.090922
v 0.152603 0.049207 -0.118796
v 0.152603 -0.000000 -0.128584
v 0.152603 0.128584 -0.000000
v 0.152603 0.118796 0.049207
v 0.152603 0.090923 0.090923
v 0.152603 0.049207 0.118796
v 0.152603 -0.000000 0.128584
v 0.152603 -0.049207 0.118796
v 0.152603 -0.090922 0.090923
v 0.152603 -0.118796 0.049207
v 0.152603 -0.128584 -0.000000
v 0.152603 -0.118796 -0.049207
v 0.152603 -0.090922 -0.090922
v 0.152603 -0.049207 -0.118796
vn 0.7938 -0.4276 -0.4325
vn 0.7938 -0.2295 -0.5632
vn 0.7938 -0.2904 -0.5343
vn 0.7938 -0.4728 -0.3825
vn 0.7938 0.5605 0.2360
vn 0.7938 0.4276 0.4325
vn 0.7938 0.4728 0.3825
vn 0.7938 0.5832 0.1724
vn 0.7938 -0.4325 0.4276
vn 0.7938 -0.5632 0.2295
vn 0.7938 -0.5343 0.2904
vn 0.7938 -0.3825 0.4728
vn 0.7938 0.2295 0.5632
vn 0.7938 -0.0035 0.6082
vn 0.7938 0.0639 0.6048
vn 0.7938 0.2904 0.5343
vn 0.7938 -0.5605 -0.2360
vn 0.7938 -0.5832 -0.1724
vn 0.7938 0.5632 -0.2295
vn 0.7938 0.6081 0.0035
vn 0.7938 0.6048 -0.0639
vn 0.7938 0.5343 -0.2904
vn 0.7938 0.4325 -0.4276
vn 0.7938 0.3825 -0.4728
vn 0.7938 0.2360 -0.5605
vn 0.7938 0.1724 -0.5832
vn 0.7938 0.0035 -0.6081
vn 0.7938 -0.0639 -0.6048
vn 0.7938 -0.6081 -0.0035
vn 0.7938 -0.6048 0.0639
vn 0.7938 -0.2360 0.5605
vn 0.7938 -0.1724 0.5832
vn -0.0000 0.1951 -0.9808
vn -0.0000 0.5556 -0.8315
vn -0.0000 0.8315 -0.5556
vn -0.0000 0.9808 -0.1951
vn -0.0000 0.9808 0.1951
vn -0.0000 0.8315 0.5556
vn -0.0000 0.5556 0.8315
vn -0.0000 0.1951 0.9808
vn -0.0000 -0.1951 0.9808
vn -0.0000 -0.5556 0.8315
vn -0.0000 -0.8315 0.5556
vn -0.0000 -0.9808 0.1951
vn -0.0000 -0.9808 -0.1951
vn -0.0000 -0.8315 -0.5556
vn -0.0000 -0.5556 -0.8315
vn -0.0000 -0.1951 -0.9808
vn 1.0000 -0.0000 -0.0000
vn -1.0000 -0.0000 -0.0000
vn 0.7822 0.5989 0.1718
vn 0.7822 0.4875 0.3879
vn 0.7822 0.4433 0.4377
vn 0.7822 0.5771 0.2347
vn 0.7822 -0.1718 0.5989
vn 0.7822 -0.3879 0.4875
vn 0.7822 -0.4377 0.4433
vn 0.7822 -0.2348 0.5771
vn 0.7822 -0.6190 0.0705
vn 0.7822 -0.5989 -0.1718
vn 0.7822 -0.5771 -0.2348
vn 0.7822 -0.6230 0.0040
vn 0.7822 0.3020 0.5449
vn 0.7822 0.2421 0.5741
vn 0.7822 0.0705 0.6190
vn 0.7822 0.0040 0.6230
vn 0.7822 -0.3020 -0.5449
vn 0.7822 -0.0705 -0.6190
vn 0.7822 -0.0040 -0.6230
vn 0.7822 -0.2421 -0.5741
vn 0.7822 -0.5449 0.3020
vn 0.7822 -0.5741 0.2421
vn 0.7822 0.1718 -0.5989
vn 0.7822 0.2348 -0.5771
vn 0.7822 0.5449 -0.3020
vn 0.7822 0.6190 -0.0705
vn 0.7822 0.6230 -0.0040
vn 0.7822 0.5741 -0.2421
vn 0.7822 -0.4875 -0.3879
vn 0.7822 -0.4433 -0.4377
vn 0.7822 0.3879 -0.4875
vn 0.7822 0.4377 -0.4433
vt 0.717016 0.182472
vt 0.704440 0.182472
vt 0.705779 0.175900
vt 0.715677 0.175941
vt 0.693353 0.124384
vt 0.704816 0.119815
vt 0.706054 0.126235
vt 0.696997 0.129930
vt 0.742158 0.144780
vt 0.742159 0.157372
vt 0.735578 0.156041
vt 0.735618 0.146124
vt 0.717066 0.119845
vt 0.728477 0.124543
vt 0.724849 0.130060
vt 0.715806 0.126283
vt 0.728515 0.177640
vt 0.724794 0.172155
vt 0.679519 0.144600
vt 0.684489 0.133104
vt 0.689963 0.136840
vt 0.686099 0.145956
vt 0.679495 0.157191
vt 0.686048 0.155885
vt 0.684245 0.168733
vt 0.689763 0.165052
vt 0.692956 0.177539
vt 0.696666 0.172069
vt 0.737253 0.168871
vt 0.731756 0.165184
vt 0.737309 0.133261
vt 0.731827 0.137001
vt 0.697850 0.933180
vt 0.697850 0.936875
vt 0.700625 0.936875
vt 0.700625 0.933180
vt 0.703400 0.936875
vt 0.703400 0.933180
vt 0.706175 0.936875
vt 0.706175 0.933180
vt 0.708950 0.936875
vt 0.708950 0.933180
vt 0.711725 0.936875
vt 0.711725 0.933180
vt 0.714499 0.936875
vt 0.714499 0.933180
vt 0.717274 0.936875
vt 0.717274 0.933180
vt 0.720049 0.936875
vt 0.720049 0.933180
vt 0.675652 0.933180
vt 0.675652 0.936875
vt 0.678427 0.936875
vt 0.678427 0.933180
vt 0.681201 0.936875
vt 0.681201 0.933180
vt 0.683976 0.936875
vt 0.683976 0.933180
vt 0.686751 0.936875
vt 0.686751 0.933180
vt 0.689526 0.936875
vt 0.689526 0.933180
vt 0.692301 0.936875
vt 0.692301 0.933180
vt 0.695076 0.936875
vt 0.695076 0.933180
vt 0.668799 0.974939
vt 0.675431 0.970510
vt 0.673436 0.965696
vt 0.665613 0.967251
vt 0.665613 0.958930
vt 0.673436 0.960486
vt 0.675431 0.955672
vt 0.668799 0.951243
vt 0.679117 0.951987
vt 0.674686 0.945359
vt 0.698394 0.980823
vt 0.693963 0.974195
vt 0.689146 0.976189
vt 0.690702 0.984008
vt 0.690702 0.942174
vt 0.689146 0.949993
vt 0.693963 0.951987
vt 0.698394 0.945359
vt 0.704281 0.974939
vt 0.697649 0.970510
vt 0.683933 0.949993
vt 0.682377 0.942174
vt 0.697649 0.955672
vt 0.704281 0.951243
vt 0.682377 0.984008
vt 0.683933 0.976189
vt 0.679117 0.974195
vt 0.674686 0.980823
vt 0.707467 0.967252
vt 0.699644 0.965696
vt 0.699644 0.960486
vt 0.707467 0.958930
vt 0.690289 0.984563
vt 0.707053 0.959486
vt 0.681964 0.942730
vt 0.674273 0.945914
vt 0.665200 0.967807
vt 0.668386 0.951798
vt 0.665200 0.959486
vt 0.668386 0.975495
vt 0.674273 0.981379
vt 0.681964 0.984563
vt 0.697981 0.981379
vt 0.703867 0.975495
vt 0.707053 0.967807
vt 0.703867 0.951798
vt 0.697981 0.945914
vt 0.690289 0.942730
vt 0.734419 0.182245
vt 0.720637 0.187968
vt 0.718972 0.179859
vt 0.729769 0.175426
vt 0.681460 0.171507
vt 0.675845 0.157649
vt 0.684025 0.156030
vt 0.688330 0.166922
vt 0.748732 0.448636
vt 0.754194 0.443270
vt 0.756536 0.446801
vt 0.752250 0.451022
vt 0.768698 0.478995
vt 0.761012 0.478963
vt 0.761862 0.474782
vt 0.767842 0.474831
vt 0.705673 0.187906
vt 0.691896 0.182114
vt 0.696498 0.175284
vt 0.707329 0.179764
vt 0.720832 0.112897
vt 0.734502 0.118607
vt 0.729960 0.125495
vt 0.719267 0.120920
vt 0.675921 0.142637
vt 0.681763 0.128857
vt 0.688613 0.133503
vt 0.684066 0.144301
vt 0.753936 0.475989
vt 0.748577 0.470541
vt 0.752105 0.468186
vt 0.756300 0.472481
vt 0.775819 0.443372
vt 0.781237 0.448761
vt 0.777737 0.451152
vt 0.773486 0.446909
vt 0.750722 0.157884
vt 0.744945 0.171707
vt 0.738052 0.167119
vt 0.742558 0.156228
vt 0.745692 0.463423
vt 0.745732 0.455713
vt 0.749915 0.456568
vt 0.749894 0.462592
vt 0.692397 0.118410
vt 0.706089 0.112825
vt 0.707651 0.120835
vt 0.696959 0.125285
vt 0.761226 0.440402
vt 0.768798 0.440439
vt 0.767994 0.444559
vt 0.762028 0.444515
vt 0.745052 0.129100
vt 0.750783 0.142893
vt 0.742663 0.144559
vt 0.738236 0.133756
vt 0.784181 0.455844
vt 0.784149 0.463544
vt 0.779956 0.462694
vt 0.780010 0.456700
vt 0.781182 0.470643
vt 0.775776 0.476056
vt 0.773388 0.472554
vt 0.777642 0.468287
s 1
usemtl PD_VehiclePack_MAT.002
f 40/1/1 41/2/2 56/3/3 55/4/4
f 47/5/5 48/6/6 63/7/7 62/8/8
f 2/9/9 1/10/10 3/11/11 50/12/12
f 49/13/13 37/14/14 52/15/15 64/16/16
f 39/17/17 40/1/1 55/4/4 54/18/18
f 48/6/6 49/13/13 64/16/16 63/7/7
f 45/19/19 46/20/20 61/21/21 60/22/22
f 44/23/23 45/19/19 60/22/22 59/24/24
f 43/25/25 44/23/23 59/24/24 58/26/26
f 42/27/27 43/25/25 58/26/26 57/28/28
f 46/20/20 47/5/5 62/8/8 61/21/21
f 41/2/2 42/27/27 57/28/28 56/3/3
f 1/10/10 38/29/29 53/30/30 3/11/11
f 38/29/29 39/17/17 54/18/18 53/30/30
f 4/31/31 2/9/9 50/12/12 51/32/32
f 37/14/14 4/31/31 51/32/32 52/15/15
f 5/33/33 6/34/33 8/35/33 7/36/33
f 7/36/34 8/35/34 10/37/34 9/38/34
f 9/38/35 10/37/35 12/39/35 11/40/35
f 11/40/36 12/39/36 14/41/36 13/42/36
f 13/42/37 14/41/37 16/43/37 15/44/37
f 15/44/38 16/43/38 18/45/38 17/46/38
f 17/46/39 18/45/39 20/47/39 19/48/39
f 19/48/40 20/47/40 22/49/40 21/50/40
f 21/51/41 22/52/41 24/53/41 23/54/41
f 23/54/42 24/53/42 26/55/42 25/56/42
f 25/56/43 26/55/43 28/57/43 27/58/43
f 27/58/44 28/57/44 30/59/44 29/60/44
f 29/60/45 30/59/45 32/61/45 31/62/45
f 31/62/46 32/61/46 34/63/46 33/64/46
f 33/64/47 34/63/47 36/65/47 35/66/47
f 35/66/48 36/65/48 6/34/48 5/33/48
f 29/67/49 46/68/49 45/69/49 27/70/49
f 25/71/49 44/72/49 43/73/49 23/74/49
f 23/74/49 43/73/49 42/75/49 21/76/49
f 5/77/49 37/78/49 49/79/49 35/80/49
f 17/81/49 40/82/49 39/83/49 15/84/49
f 7/85/49 4/86/49 37/78/49 5/77/49
f 21/76/49 42/75/49 41/87/49 19/88/49
f 15/84/49 39/83/49 38/89/49 13/90/49
f 33/91/49 48/92/49 47/93/49 31/94/49
f 19/88/49 41/87/49 40/82/49 17/81/49
f 9/95/49 2/96/49 4/86/49 7/85/49
f 13/90/49 38/89/49 1/97/49 11/98/49
f 27/70/49 45/69/49 44/72/49 25/71/49
f 31/94/49 47/93/49 46/68/49 29/67/49
f 35/80/49 49/79/49 48/92/49 33/91/49
f 11/98/49 1/97/49 2/96/49 9/95/49
f 24/99/50 16/100/50 8/101/50
f 8/101/50 6/102/50 32/103/50
f 6/102/50 36/104/50 32/103/50
f 36/104/50 34/105/50 32/103/50
f 32/103/50 30/106/50 28/107/50
f 28/107/50 26/108/50 24/99/50
f 24/99/50 22/109/50 20/110/50
f 20/110/50 18/111/50 16/100/50
f 16/100/50 14/112/50 12/113/50
f 12/113/50 10/114/50 8/101/50
f 32/103/50 28/107/50 24/99/50
f 24/99/50 20/110/50 16/100/50
f 16/100/50 12/113/50 8/101/50
f 8/101/50 32/103/50 24/99/50
f 54/115/51 55/116/52 71/117/53 70/118/54
f 58/119/55 59/120/56 75/121/57 74/122/58
f 61/123/59 62/124/60 78/125/61 77/126/62
f 55/127/52 56/128/63 72/129/64 71/130/53
f 56/131/63 57/132/65 73/133/66 72/134/64
f 64/135/67 52/136/68 68/137/69 80/138/70
f 60/139/71 61/140/59 77/141/62 76/142/72
f 57/143/65 58/144/55 74/145/58 73/146/66
f 52/147/68 51/148/73 67/149/74 68/150/69
f 3/151/75 53/152/76 69/153/77 65/154/78
f 59/155/56 60/156/71 76/157/72 75/158/57
f 62/159/60 63/160/79 79/161/80 78/162/61
f 63/163/79 64/164/67 80/165/70 79/166/80
f 51/167/73 50/168/81 66/169/82 67/170/74
f 50/171/81 3/172/75 65/173/78 66/174/82
f 53/175/76 54/176/51 70/177/54 69/178/77
f 77/141/49 68/137/49 69/153/49
f 77/141/49 78/162/49 68/137/49
f 78/162/49 79/161/49 68/137/49
f 79/161/49 80/138/49 68/137/49
f 68/137/49 67/170/49 66/169/49
f 66/169/49 65/154/49 68/137/49
f 65/154/49 69/153/49 68/137/49
f 69/153/49 70/118/49 71/117/49
f 71/117/49 72/134/49 69/153/49
f 72/134/49 73/133/49 69/153/49
f 73/133/49 74/122/49 75/121/49
f 75/121/49 76/142/49 77/141/49
f 73/133/49 75/121/49 69/153/49
f 75/121/49 77/141/49 69/153/49
