# Blender 4.3.2
# www.blender.org
mtllib Car_Hatch_C_DoorR.mtl
o Car_Hatch_C_DoorR
v -0.725355 0.208772 1.588136
v -0.794886 0.417480 1.582430
v -0.794886 0.694061 1.617066
v -0.725355 0.208772 0.609591
v -0.794886 0.417480 0.602110
v -0.794886 0.694061 0.629337
v -0.737576 0.757586 0.649380
v -0.737576 0.757586 1.611389
v -0.668276 0.218286 1.590884
v -0.698314 0.417480 1.586800
v -0.698314 0.694061 1.622530
v -0.668276 0.218285 0.604328
v -0.698314 0.417480 0.595455
v -0.698314 0.694061 0.624717
v -0.700151 0.757586 0.649380
v -0.700151 0.757586 1.611389
v -0.795414 0.668171 0.654018
v -0.795414 0.669531 0.819973
v -0.797813 0.619201 0.645856
v -0.881008 0.814615 1.526590
v -0.840744 0.806927 1.551102
v -0.804247 0.828414 1.573180
v -0.785457 0.870870 1.584390
v -0.791553 0.918077 1.580450
v -0.820204 0.952004 1.562865
v -0.860469 0.959692 1.538353
v -0.896966 0.938204 1.516275
v -0.915755 0.895749 1.505065
v -0.909659 0.848542 1.509005
v -0.837124 0.813747 1.638205
v -0.839110 0.815158 1.634979
v -0.835328 0.819350 1.634459
v -0.835280 0.819403 1.629966
v -0.839210 0.815047 1.629850
v -0.787536 0.702208 1.555117
v -0.751972 0.741629 1.556169
v -0.752405 0.741149 1.596828
v -0.786625 0.703217 1.601532
vn 0.9888 0.1491 -0.0000
vn 1.0000 -0.0000 -0.0000
vn 0.9996 0.0289 -0.0000
vn -0.9988 0.0490 -0.0004
vn -0.2369 -0.9678 0.0856
vn -0.7876 0.1942 0.5848
vn 0.0242 0.4761 0.8791
vn 0.4849 -0.8732 0.0482
vn -0.8780 -0.0739 0.4730
vn -0.3887 0.4771 0.7882
vn 0.8327 -0.4527 0.3189
vn -0.7995 -0.5143 0.3103
vn -0.6301 0.3673 0.6842
vn 0.6322 0.1452 0.7611
vn 0.5194 -0.0042 -0.8545
vn 0.5194 -0.0043 -0.8545
vn -0.7425 0.6699 -0.0000
vn 0.2915 -0.1458 0.9454
vn -0.9020 -0.4310 0.0271
vn 0.6898 0.7238 0.0159
vn -0.3923 0.3763 -0.8394
vn -0.9487 -0.3161 -0.0000
vn -1.0000 -0.0000 -0.0000
vn -0.0470 0.0125 0.9988
vn -0.0000 1.0000 -0.0000
vn -0.0324 0.3443 -0.9383
vn -0.0580 0.1014 -0.9932
vn -0.0504 -0.1260 0.9907
vn -0.0403 0.1484 0.9881
vn -0.0736 -0.0579 -0.9956
vn 0.1644 -0.9864 -0.0000
vt 0.016262 0.388562
vt 0.041420 0.388562
vt 0.041647 0.383185
vt 0.016367 0.383185
vt 0.040900 0.376132
vt 0.015455 0.376132
vt 0.040271 0.374511
vt 0.015740 0.374511
vt 0.762642 0.964350
vt 0.778569 0.968818
vt 0.780709 0.964350
vt 0.697830 0.958310
vt 0.691222 0.966549
vt 0.703562 0.958961
vt 0.712350 0.965870
vt 0.712888 0.971614
vt 0.705208 0.979595
vt 0.699439 0.979595
vt 0.688782 0.975188
vt 0.683267 0.973496
vt 0.708838 0.961294
vt 0.710211 0.976723
vt 0.694049 0.977539
vt 0.766177 0.048793
vt 0.720677 0.048793
vt 0.743427 0.065322
vt 0.729366 0.022048
vt 0.743427 0.017480
vt 0.757487 0.022048
vt 0.766177 0.034009
vt 0.757487 0.060753
vt 0.729366 0.060753
vt 0.720677 0.034009
vt 0.676124 0.954849
vt 0.675684 0.954569
vt 0.675379 0.954920
vt 0.675411 0.955891
vt 0.669819 0.945175
vt 0.677903 0.942465
vt 0.684236 0.942465
vt 0.665760 0.945992
vt 0.688330 0.948844
vt 0.049434 0.465214
vt 0.019709 0.465390
vt 0.019596 0.468118
vt 0.049225 0.468186
vt 0.050611 0.449993
vt 0.020941 0.448003
vt 0.019869 0.455772
vt 0.051376 0.456659
vt 0.019766 0.446032
vt 0.015230 0.454512
vt 0.018905 0.469482
vt 0.049819 0.469482
vt 0.052710 0.467560
vt 0.055311 0.456012
vt 0.016306 0.467366
vt 0.051907 0.447881
s 0
usemtl PD_VehiclePack_MAT
f 9/1/1 12/2/1 13/3/1 10/4/1
f 10/4/2 13/3/2 14/5/2 11/6/2
f 15/7/3 16/8/3 11/6/3 14/5/3
f 18/9/4 17/10/4 19/11/4
f 21/12/5 30/13/5 20/14/5
f 28/15/6 30/13/6 27/16/6
f 25/17/7 30/13/7 24/18/7
f 22/19/8 30/13/8 21/20/8
f 29/21/9 30/13/9 28/15/9
f 26/22/10 30/13/10 25/17/10
f 23/23/11 30/13/11 22/19/11
f 20/14/12 30/13/12 29/21/12
f 27/16/13 30/13/13 26/22/13
f 24/18/14 30/13/14 23/23/14
f 24/24/15 28/25/15 26/26/15
f 20/27/15 24/24/15 21/28/15
f 21/28/16 24/24/16 22/29/16
f 22/29/15 24/24/15 23/30/15
f 24/24/16 26/26/16 25/31/16
f 26/26/15 28/25/15 27/32/15
f 28/25/15 24/24/15 29/33/15
f 29/33/16 24/24/16 20/27/16
f 34/34/17 31/35/17 32/36/17 33/37/17
f 37/38/18 32/36/18 31/35/18 38/39/18
f 38/39/19 31/35/19 34/34/19 35/40/19
f 36/41/20 33/37/20 32/36/20 37/38/20
f 35/40/21 34/34/21 33/37/21 36/42/21
usemtl PD_VehiclePack_bodycolor
f 6/43/17 3/44/17 8/45/17 7/46/17
f 4/47/22 1/48/22 2/49/22 5/50/22
f 5/50/23 2/49/23 3/44/23 6/43/23
f 1/48/24 9/51/24 10/52/24 2/49/24
f 8/45/25 16/53/25 15/54/25 7/46/25
f 7/46/26 15/54/26 14/55/26 6/43/26
f 6/43/27 14/55/27 13/56/27 5/50/27
f 2/49/28 10/52/28 11/57/28 3/44/28
f 3/44/29 11/57/29 16/53/29 8/45/29
f 5/50/30 13/56/30 12/58/30 4/47/30
f 4/47/31 12/58/31 9/51/31 1/48/31
