# Blender 4.3.2
# www.blender.org
mtllib Car_Hatch_C_WheelBL_Origin_at_center.mtl
o Car_Hatch_C_WheelBL_Origin_at_center
v 0.698972 0.365508 0.074211
v 0.698972 0.426157 0.033686
v 0.674822 0.368799 0.037715
v 0.698972 0.466682 -0.026963
v 0.698972 0.592508 -0.098504
v 0.543775 0.592508 -0.098504
v 0.698972 0.569783 0.015743
v 0.543775 0.569783 0.015743
v 0.698972 0.505068 0.112597
v 0.543775 0.505068 0.112597
v 0.698972 0.408214 0.177312
v 0.543775 0.408214 0.177312
v 0.698972 0.293967 0.200038
v 0.543775 0.293967 0.200038
v 0.698972 0.179720 0.177312
v 0.543775 0.179721 0.177312
v 0.698972 0.082867 0.112597
v 0.543775 0.082867 0.112597
v 0.698972 0.018151 0.015743
v 0.543775 0.018151 0.015743
v 0.698972 -0.004574 -0.098504
v 0.543774 -0.004574 -0.098504
v 0.698972 0.018151 -0.212750
v 0.543774 0.018151 -0.212750
v 0.698972 0.082867 -0.309604
v 0.543774 0.082867 -0.309604
v 0.698972 0.179720 -0.374320
v 0.543774 0.179720 -0.374320
v 0.698972 0.293967 -0.397045
v 0.543775 0.293967 -0.397045
v 0.698972 0.408214 -0.374320
v 0.543775 0.408214 -0.374320
v 0.698972 0.505068 -0.309604
v 0.543775 0.505068 -0.309604
v 0.698972 0.569783 -0.212750
v 0.543775 0.569783 -0.212750
v 0.698972 0.480912 -0.098504
v 0.698972 0.293967 0.088441
v 0.698972 0.222426 0.074211
v 0.698972 0.161777 0.033686
v 0.698972 0.121253 -0.026963
v 0.698972 0.107022 -0.098504
v 0.698972 0.121253 -0.170044
v 0.698972 0.161777 -0.230693
v 0.698972 0.222426 -0.271218
v 0.698972 0.293967 -0.285449
v 0.698972 0.365508 -0.271218
v 0.698972 0.426157 -0.230694
v 0.698972 0.466682 -0.170044
v 0.674822 0.415232 -0.001291
v 0.674822 0.443203 -0.055097
v 0.674822 0.448454 -0.115511
v 0.674822 0.310974 0.055984
v 0.674822 0.250560 0.050732
v 0.674822 0.196754 0.022761
v 0.674822 0.157748 -0.023671
v 0.674822 0.139480 -0.081496
v 0.674822 0.144731 -0.141911
v 0.674822 0.172702 -0.195716
v 0.674822 0.219135 -0.234723
v 0.674822 0.276960 -0.252991
v 0.674822 0.337374 -0.247739
v 0.674822 0.391180 -0.219768
v 0.674822 0.430186 -0.173336
v 0.696198 0.343174 0.020292
v 0.696198 0.384890 -0.007581
v 0.696198 0.412763 -0.049297
v 0.696198 0.422551 -0.098504
v 0.696198 0.293967 0.030080
v 0.696198 0.244760 0.020292
v 0.696198 0.203045 -0.007581
v 0.696198 0.175171 -0.049297
v 0.696198 0.165383 -0.098504
v 0.696198 0.175171 -0.147710
v 0.696198 0.203045 -0.189426
v 0.696198 0.244760 -0.217300
v 0.696198 0.293967 -0.227088
v 0.696198 0.343174 -0.217300
v 0.696198 0.384890 -0.189426
v 0.696198 0.412763 -0.147710
v 0.696198 0.293967 -0.098504
vn 0.7885 0.4937 -0.3667
vn 0.7885 -0.3158 0.5277
vn 0.7885 -0.3667 -0.4937
vn 0.7885 -0.5965 0.1498
vn 0.7885 0.3158 -0.5277
vn 0.7885 -0.4937 0.3667
vn 0.7885 0.1498 0.5965
vn 0.7885 0.3667 0.4937
vn 0.7885 0.5277 0.3158
vn 0.7885 0.6084 0.0898
vn 0.7885 -0.0898 0.6084
vn 0.7885 0.5965 -0.1498
vn 0.7885 -0.1498 -0.5965
vn 0.7885 0.0898 -0.6084
vn 0.7885 -0.5277 -0.3158
vn 0.7885 -0.6084 -0.0898
vn -0.0000 0.9808 0.1951
vn -0.0000 0.8315 0.5556
vn -0.0000 0.5556 0.8315
vn -0.0000 0.1951 0.9808
vn -0.0000 -0.1951 0.9808
vn -0.0000 -0.5556 0.8315
vn -0.0000 -0.8315 0.5556
vn -0.0000 -0.9808 0.1951
vn -0.0000 -0.9808 -0.1951
vn -0.0000 -0.8315 -0.5556
vn -0.0000 -0.5556 -0.8315
vn -0.0000 -0.1951 -0.9808
vn -0.0000 0.1951 -0.9808
vn -0.0000 0.5556 -0.8315
vn -0.0000 0.8315 -0.5556
vn -0.0000 0.9808 -0.1951
vn 1.0000 -0.0000 -0.0000
vn -1.0000 -0.0000 -0.0000
vn 0.7767 -0.3179 0.5437
vn 0.7767 -0.5437 -0.3179
vn 0.7767 0.0856 -0.6240
vn 0.7767 -0.5018 0.3807
vn 0.7767 -0.6093 0.1597
vn 0.7767 0.6093 -0.1597
vn 0.7767 -0.1597 -0.6093
vn 0.7767 -0.6240 -0.0856
vn 0.7767 0.6240 0.0856
vn 0.7767 0.1597 0.6093
vn 0.7767 -0.3807 -0.5018
vn 0.7767 0.3179 -0.5438
vn 0.7767 0.5018 -0.3807
vn 0.7767 0.5438 0.3179
vn 0.7767 0.3807 0.5018
vn 0.7767 -0.0856 0.6240
vt 0.717016 0.182472
vt 0.704440 0.182472
vt 0.705779 0.175900
vt 0.715677 0.175941
vt 0.693353 0.124384
vt 0.704816 0.119815
vt 0.706054 0.126235
vt 0.696997 0.129930
vt 0.742158 0.144780
vt 0.742159 0.157372
vt 0.735578 0.156041
vt 0.735618 0.146124
vt 0.717066 0.119845
vt 0.728477 0.124543
vt 0.724849 0.130060
vt 0.715806 0.126283
vt 0.728515 0.177640
vt 0.724794 0.172155
vt 0.679519 0.144600
vt 0.684489 0.133104
vt 0.689963 0.136840
vt 0.686099 0.145956
vt 0.679495 0.157191
vt 0.686048 0.155885
vt 0.684245 0.168733
vt 0.689763 0.165052
vt 0.692956 0.177539
vt 0.696666 0.172069
vt 0.737253 0.168871
vt 0.731756 0.165184
vt 0.737309 0.133261
vt 0.731827 0.137001
vt 0.697850 0.933180
vt 0.697850 0.936875
vt 0.700625 0.936875
vt 0.700625 0.933180
vt 0.703400 0.936875
vt 0.703400 0.933180
vt 0.706175 0.936875
vt 0.706175 0.933180
vt 0.708950 0.936875
vt 0.708950 0.933180
vt 0.711725 0.936875
vt 0.711725 0.933180
vt 0.714499 0.936875
vt 0.714499 0.933180
vt 0.717274 0.936875
vt 0.717274 0.933180
vt 0.720049 0.936875
vt 0.720049 0.933180
vt 0.675652 0.933180
vt 0.675652 0.936875
vt 0.678427 0.936875
vt 0.678427 0.933180
vt 0.681201 0.936875
vt 0.681201 0.933180
vt 0.683976 0.936875
vt 0.683976 0.933180
vt 0.686751 0.936875
vt 0.686751 0.933180
vt 0.689526 0.936875
vt 0.689526 0.933180
vt 0.692301 0.936875
vt 0.692301 0.933180
vt 0.695076 0.936875
vt 0.695076 0.933180
vt 0.668799 0.974939
vt 0.675431 0.970510
vt 0.673436 0.965696
vt 0.665613 0.967251
vt 0.665613 0.958930
vt 0.673436 0.960486
vt 0.675431 0.955672
vt 0.668799 0.951243
vt 0.679117 0.951987
vt 0.674686 0.945359
vt 0.698394 0.980823
vt 0.693963 0.974195
vt 0.689146 0.976189
vt 0.690702 0.984008
vt 0.690702 0.942174
vt 0.689146 0.949993
vt 0.693963 0.951987
vt 0.698394 0.945359
vt 0.704281 0.974939
vt 0.697649 0.970510
vt 0.683933 0.949993
vt 0.682377 0.942174
vt 0.697649 0.955672
vt 0.704281 0.951243
vt 0.682377 0.984008
vt 0.683933 0.976189
vt 0.679117 0.974195
vt 0.674686 0.980823
vt 0.707467 0.967252
vt 0.699644 0.965696
vt 0.699644 0.960486
vt 0.707467 0.958930
vt 0.690289 0.984563
vt 0.707053 0.959486
vt 0.681964 0.942730
vt 0.674273 0.945914
vt 0.665200 0.967807
vt 0.668386 0.951798
vt 0.665200 0.959486
vt 0.668386 0.975495
vt 0.674273 0.981379
vt 0.681964 0.984563
vt 0.697981 0.981379
vt 0.703867 0.975495
vt 0.707053 0.967807
vt 0.703867 0.951798
vt 0.697981 0.945914
vt 0.690289 0.942730
vt 0.734419 0.182245
vt 0.720637 0.187968
vt 0.718972 0.179859
vt 0.729769 0.175426
vt 0.681460 0.171507
vt 0.675845 0.157649
vt 0.684025 0.156030
vt 0.688330 0.166922
vt 0.748732 0.448636
vt 0.754194 0.443270
vt 0.756536 0.446801
vt 0.752250 0.451022
vt 0.768698 0.478995
vt 0.761012 0.478963
vt 0.761862 0.474782
vt 0.767842 0.474831
vt 0.705673 0.187906
vt 0.691896 0.182114
vt 0.696498 0.175284
vt 0.707329 0.179764
vt 0.720832 0.112897
vt 0.734502 0.118607
vt 0.729960 0.125495
vt 0.719267 0.120920
vt 0.675921 0.142637
vt 0.681763 0.128857
vt 0.688613 0.133503
vt 0.684066 0.144301
vt 0.753936 0.475989
vt 0.748577 0.470541
vt 0.752105 0.468186
vt 0.756300 0.472481
vt 0.775819 0.443372
vt 0.781237 0.448761
vt 0.777737 0.451152
vt 0.773486 0.446909
vt 0.750722 0.157884
vt 0.744945 0.171707
vt 0.738052 0.167119
vt 0.742558 0.156228
vt 0.745692 0.463423
vt 0.745732 0.455713
vt 0.749915 0.456568
vt 0.749894 0.462592
vt 0.692397 0.118410
vt 0.706089 0.112825
vt 0.707651 0.120835
vt 0.696959 0.125285
vt 0.761226 0.440402
vt 0.768798 0.440439
vt 0.767994 0.444559
vt 0.762028 0.444515
vt 0.745052 0.129100
vt 0.750783 0.142893
vt 0.742663 0.144559
vt 0.738236 0.133756
vt 0.784181 0.455844
vt 0.784149 0.463544
vt 0.779956 0.462694
vt 0.780010 0.456700
vt 0.781182 0.470643
vt 0.775776 0.476056
vt 0.773388 0.472554
vt 0.777642 0.468287
vt 0.741849 0.323566
s 0
usemtl PD_VehiclePack_MAT
f 40/1/1 41/2/1 56/3/1 55/4/1
f 47/5/2 48/6/2 63/7/2 62/8/2
f 2/9/3 1/10/3 3/11/3 50/12/3
f 49/13/4 37/14/4 52/15/4 64/16/4
f 39/17/5 40/1/5 55/4/5 54/18/5
f 48/6/6 49/13/6 64/16/6 63/7/6
f 45/19/7 46/20/7 61/21/7 60/22/7
f 44/23/8 45/19/8 60/22/8 59/24/8
f 43/25/9 44/23/9 59/24/9 58/26/9
f 42/27/10 43/25/10 58/26/10 57/28/10
f 46/20/11 47/5/11 62/8/11 61/21/11
f 41/2/12 42/27/12 57/28/12 56/3/12
f 1/10/13 38/29/13 53/30/13 3/11/13
f 38/29/14 39/17/14 54/18/14 53/30/14
f 4/31/15 2/9/15 50/12/15 51/32/15
f 37/14/16 4/31/16 51/32/16 52/15/16
f 5/33/17 6/34/17 8/35/17 7/36/17
f 7/36/18 8/35/18 10/37/18 9/38/18
f 9/38/19 10/37/19 12/39/19 11/40/19
f 11/40/20 12/39/20 14/41/20 13/42/20
f 13/42/21 14/41/21 16/43/21 15/44/21
f 15/44/22 16/43/22 18/45/22 17/46/22
f 17/46/23 18/45/23 20/47/23 19/48/23
f 19/48/24 20/47/24 22/49/24 21/50/24
f 21/51/25 22/52/25 24/53/25 23/54/25
f 23/54/26 24/53/26 26/55/26 25/56/26
f 25/56/27 26/55/27 28/57/27 27/58/27
f 27/58/28 28/57/28 30/59/28 29/60/28
f 29/60/29 30/59/29 32/61/29 31/62/29
f 31/62/30 32/61/30 34/63/30 33/64/30
f 33/64/31 34/63/31 36/65/31 35/66/31
f 35/66/32 36/65/32 6/34/32 5/33/32
f 29/67/33 46/68/33 45/69/33 27/70/33
f 25/71/33 44/72/33 43/73/33 23/74/33
f 23/74/33 43/73/33 42/75/33 21/76/33
f 5/77/33 37/78/33 49/79/33 35/80/33
f 17/81/33 40/82/33 39/83/33 15/84/33
f 7/85/33 4/86/33 37/78/33 5/77/33
f 21/76/33 42/75/33 41/87/33 19/88/33
f 15/84/33 39/83/33 38/89/33 13/90/33
f 33/91/33 48/92/33 47/93/33 31/94/33
f 19/88/33 41/87/33 40/82/33 17/81/33
f 9/95/33 2/96/33 4/86/33 7/85/33
f 13/90/33 38/89/33 1/97/33 11/98/33
f 27/70/33 45/69/33 44/72/33 25/71/33
f 31/94/33 47/93/33 46/68/33 29/67/33
f 35/80/33 49/79/33 48/92/33 33/91/33
f 11/98/33 1/97/33 2/96/33 9/95/33
f 24/99/34 16/100/34 8/101/34
f 8/101/34 6/102/34 32/103/34
f 6/102/34 36/104/34 32/103/34
f 36/104/34 34/105/34 32/103/34
f 32/103/34 30/106/34 28/107/34
f 28/107/34 26/108/34 24/99/34
f 24/99/34 22/109/34 20/110/34
f 20/110/34 18/111/34 16/100/34
f 16/100/34 14/112/34 12/113/34
f 12/113/34 10/114/34 8/101/34
f 32/103/34 28/107/34 24/99/34
f 24/99/34 20/110/34 16/100/34
f 16/100/34 12/113/34 8/101/34
f 8/101/34 32/103/34 24/99/34
f 54/115/35 55/116/35 71/117/35 70/118/35
f 58/119/36 59/120/36 75/121/36 74/122/36
f 61/123/37 62/124/37 78/125/37 77/126/37
f 55/127/38 56/128/38 72/129/38 71/130/38
f 56/131/39 57/132/39 73/133/39 72/134/39
f 64/135/40 52/136/40 68/137/40 80/138/40
f 60/139/41 61/140/41 77/141/41 76/142/41
f 57/143/42 58/144/42 74/145/42 73/146/42
f 52/147/43 51/148/43 67/149/43 68/150/43
f 3/151/44 53/152/44 69/153/44 65/154/44
f 59/155/45 60/156/45 76/157/45 75/158/45
f 62/159/46 63/160/46 79/161/46 78/162/46
f 63/163/47 64/164/47 80/165/47 79/166/47
f 51/167/48 50/168/48 66/169/48 67/170/48
f 50/171/49 3/172/49 65/173/49 66/174/49
f 53/175/50 54/176/50 70/177/50 69/178/50
f 67/170/33 66/174/33 81/179/33
f 68/150/33 67/170/33 81/179/33
f 80/138/33 68/150/33 81/179/33
f 79/166/33 80/138/33 81/179/33
f 78/162/33 79/166/33 81/179/33
f 77/126/33 78/162/33 81/179/33
f 76/142/33 77/126/33 81/179/33
f 75/158/33 76/142/33 81/179/33
f 74/122/33 75/158/33 81/179/33
f 73/146/33 74/122/33 81/179/33
f 70/177/33 71/130/33 81/179/33
f 72/134/33 73/146/33 81/179/33
f 71/130/33 72/134/33 81/179/33
f 66/174/33 65/154/33 81/179/33
f 65/154/33 69/178/33 81/179/33
f 69/178/33 70/177/33 81/179/33
