# Blender 4.3.2
# www.blender.org
mtllib chair_001.mtl
o chair_001
v 0.957819 0.416785 0.265073
v 0.957819 0.416785 0.265073
v 0.957819 0.416785 0.265073
v 0.957813 0.416785 -0.229581
v 0.957813 0.416785 -0.229581
v -0.957831 0.416789 -0.229581
v -0.957831 0.416789 -0.229581
v -0.957846 0.416789 0.265074
v -0.957846 0.416789 0.265074
v -0.957846 0.416789 0.265074
v -0.959408 0.339332 0.265074
v -0.959408 0.339332 0.265074
v 0.959381 0.339320 0.265074
v 0.959381 0.339320 0.265074
v -0.959413 0.339332 -0.229581
v 0.959395 0.339321 -0.229581
v -1.038555 0.000005 0.272227
v -1.038555 0.000005 0.272227
v -1.038555 0.523189 0.272227
v -1.038555 0.523189 0.272227
v -1.038550 0.523189 0.194610
v -1.038550 0.523189 0.194610
v -1.038550 0.000005 0.194610
v -1.038550 0.000005 0.194610
v 1.038540 -0.000005 0.194610
v 1.038540 -0.000005 0.194610
v 1.038540 0.523178 0.194610
v 1.038540 0.523178 0.194610
v 1.038535 0.523178 0.272227
v 1.038535 0.523178 0.272227
v 1.038535 -0.000005 0.272227
v 1.038535 -0.000005 0.272227
v -0.961089 0.523182 0.194610
v -0.961089 0.523182 0.194610
v -0.961089 -0.000001 0.194610
v -0.961089 -0.000001 0.194610
v 0.961059 0.000001 0.194610
v 0.961059 0.000001 0.194610
v 0.961059 0.523185 0.194610
v 0.961059 0.523185 0.194610
v 0.961074 0.523185 0.272227
v 0.961074 0.523185 0.272227
v 0.961074 0.000001 0.272227
v 0.961074 0.000001 0.272227
v -0.961094 -0.000001 0.272227
v -0.961094 -0.000001 0.272227
v -0.961094 0.523182 0.272227
v -0.961094 0.523182 0.272227
v -1.050877 0.492870 -0.297809
v -1.050877 0.492870 -0.297809
v -1.050877 0.492870 -0.297809
v -1.050877 0.492870 0.297810
v -1.050877 0.492870 0.297810
v -1.050877 0.492870 0.297810
v -1.050877 0.570233 0.297810
v -1.050877 0.570233 0.297810
v -1.050877 0.570233 0.297810
v -1.050877 0.570234 -0.297809
v -1.050877 0.570234 -0.297809
v -1.050877 0.570234 -0.297809
v 1.050862 0.570235 -0.297810
v 1.050862 0.570235 -0.297810
v 1.050862 0.570235 -0.297810
v 1.050861 0.570235 0.297810
v 1.050861 0.570235 0.297810
v 1.050861 0.570235 0.297810
v 1.050861 0.492872 0.297810
v 1.050861 0.492872 0.297810
v 1.050861 0.492872 0.297810
v 1.050862 0.492872 -0.297810
v 1.050862 0.492872 -0.297810
v 1.050862 0.492872 -0.297810
v -0.942049 0.570228 0.297810
v -0.942049 0.570228 0.297810
v -0.942049 0.570228 0.297810
v -0.942049 0.570228 -0.297809
v -0.942049 0.570228 -0.297809
v -0.942049 0.570228 -0.297809
v 0.942033 0.570241 -0.297810
v 0.942033 0.570241 -0.297810
v 0.942033 0.570241 -0.297810
v 0.942033 0.570241 0.297810
v 0.942033 0.570241 0.297810
v 0.942033 0.570241 0.297810
v 0.942033 0.492877 0.297810
v 0.942033 0.492877 0.297810
v 0.942033 0.492877 0.297810
v 0.942033 0.492878 -0.297810
v 0.942033 0.492878 -0.297810
v 0.942033 0.492878 -0.297810
v -0.942049 0.492884 -0.297809
v -0.942049 0.492884 -0.297809
v -0.942049 0.492884 -0.297809
v -0.942049 0.492884 0.297810
v -0.942049 0.492884 0.297810
v -0.942049 0.492884 0.297810
v -1.038559 0.000005 -0.161768
v -1.038559 0.000005 -0.161768
v -1.038559 0.523189 -0.161767
v -1.038559 0.523189 -0.161767
v -1.038554 0.523189 -0.239384
v -1.038554 0.523189 -0.239384
v -1.038554 0.000005 -0.239384
v -1.038554 0.000005 -0.239384
v -1.038554 0.000005 -0.239384
v 1.038536 -0.000005 -0.239385
v 1.038536 -0.000005 -0.239385
v 1.038536 0.523178 -0.239385
v 1.038536 0.523178 -0.239385
v 1.038531 0.523178 -0.161768
v 1.038531 0.523178 -0.161768
v 1.038531 -0.000005 -0.161768
v 1.038531 -0.000005 -0.161768
v 0.961070 0.523185 -0.161768
v 0.961070 0.523185 -0.161768
v 0.961070 0.000001 -0.161768
v 0.961070 0.000001 -0.161768
v -0.961079 -0.000001 -0.161768
v -0.961079 -0.000001 -0.161768
v -0.961079 0.523182 -0.161767
v -0.961079 0.523182 -0.161767
v 0.961075 0.523185 -0.239385
v 0.961075 0.523185 -0.239385
v 0.961075 0.000001 -0.239385
v 0.961075 0.000001 -0.239385
v -0.961093 -0.000001 -0.239384
v -0.961093 -0.000001 -0.239384
v -0.961093 0.523182 -0.239384
v -0.961093 0.523182 -0.239384
v -0.961093 0.523182 -0.239384
v -0.934357 0.907278 -0.214200
v -0.934357 0.907278 -0.214200
v -0.934357 0.907278 -0.214200
v -0.934361 0.414992 -0.165728
v -0.934361 0.414992 -0.165728
v 0.934350 0.415008 -0.165729
v 0.934350 0.415008 -0.165729
v 0.934354 0.907273 -0.214201
v 0.934354 0.907273 -0.214201
v 0.934354 0.907273 -0.214201
v 0.935868 0.899691 -0.291293
v 0.935868 0.899691 -0.291293
v 0.935868 0.899691 -0.291293
v -0.935890 0.899684 -0.291292
v -0.935890 0.899684 -0.291292
v -0.935890 0.899684 -0.291292
v 0.935884 0.407406 -0.242822
v 0.935884 0.407406 -0.242822
v -0.935893 0.407399 -0.242821
v -0.935893 0.407399 -0.242821
vn -0.0000 1.0000 -0.0000
vn -0.0000 -0.0000 1.0000
vn -0.9998 0.0202 -0.0000
vn -0.9998 0.0204 -0.0000
vn 0.9998 0.0204 -0.0000
vn 0.9998 0.0202 -0.0000
vn -1.0000 -0.0000 -0.0001
vn 1.0000 -0.0000 0.0001
vn -0.0000 -0.0000 -1.0000
vn -1.0000 -0.0000 0.0002
vn -1.0000 -0.0000 -0.0000
vn 1.0000 -0.0000 -0.0000
vn 0.0001 1.0000 -0.0000
vn -0.0001 -1.0000 -0.0000
vn -0.0000 -1.0000 -0.0000
vn 0.0001 -1.0000 -0.0000
vn 1.0000 -0.0000 -0.0002
vn -0.0000 0.0980 0.9952
vn -0.0000 0.9952 -0.0979
vn -0.0000 0.9952 -0.0980
vn 0.9998 0.0019 0.0195
vn 0.9998 0.0020 0.0197
vn -0.9998 0.0019 0.0197
vn -0.0000 -0.0980 -0.9952
vn 0.9998 0.0019 0.0194
vt 0.255208 -0.372049
vt 0.233215 -0.463379
vt 0.255208 -0.463379
vt 0.398568 -0.454284
vt 0.401164 -0.386112
vt 0.398568 -0.388753
vt 0.595275 -0.409375
vt 0.604600 -0.403796
vt 0.588143 -0.386444
vt 0.588143 -0.403796
vt 0.484641 -0.400695
vt 0.468183 -0.383344
vt 0.468183 -0.400695
vt 0.572730 -0.427508
vt 0.586593 -0.424867
vt 0.570135 -0.424867
vt 0.591243 -0.437231
vt 0.574786 -0.439872
vt 0.591243 -0.439872
vt 0.421911 -0.375224
vt 0.438368 -0.377864
vt 0.435773 -0.375224
vt 0.423372 -0.360850
vt 0.409509 -0.358209
vt 0.409509 -0.360850
vt 0.613070 -0.436566
vt 0.595191 -0.414187
vt 0.595191 -0.436566
vt 0.592091 -0.418161
vt 0.609970 -0.440540
vt 0.609970 -0.418161
vt 0.577291 -0.388294
vt 0.593749 -0.370942
vt 0.577291 -0.370942
vt 0.610207 -0.388294
vt 0.593749 -0.388294
vt 0.279257 -0.437231
vt 0.295715 -0.439872
vt 0.293119 -0.437231
vt 0.279257 -0.371701
vt 0.295715 -0.369060
vt 0.279257 -0.369060
vt 0.312172 -0.371701
vt 0.298310 -0.371701
vt 0.298310 -0.437231
vt 0.312172 -0.439872
vt 0.312172 -0.437231
vt 0.582790 -0.424165
vt 0.600669 -0.401785
vt 0.582790 -0.401785
vt 0.582790 -0.379406
vt 0.600669 -0.379406
vt 0.431573 -0.430866
vt 0.604600 -0.386444
vt 0.453633 -0.373599
vt 0.431641 -0.464929
vt 0.453633 -0.464929
vt 0.308657 -0.384103
vt 0.311252 -0.452274
vt 0.311252 -0.381462
vt 0.579875 -0.404567
vt 0.626984 -0.410316
vt 0.633997 -0.410316
vt 0.552724 -0.411942
vt 0.555231 -0.411740
vt 0.555231 -0.411942
vt 0.593748 -0.392115
vt 0.643299 -0.401110
vt 0.593748 -0.392546
vt 0.233215 -0.372049
vt 0.401164 -0.456924
vt 0.484641 -0.383344
vt 0.586593 -0.427508
vt 0.577381 -0.437231
vt 0.421911 -0.377864
vt 0.425967 -0.358209
vt 0.613070 -0.414187
vt 0.592091 -0.440540
vt 0.610207 -0.370942
vt 0.279257 -0.439872
vt 0.293119 -0.371701
vt 0.312172 -0.369060
vt 0.600669 -0.424165
vt 0.431641 -0.373599
vt 0.308657 -0.449633
vt 0.572256 -0.404567
vt 0.577201 -0.407337
vt 0.599121 -0.392115
s 1
f 2/1/1 7/2/1 10/3/1
f 13/4/2 9/5/2 12/6/2
f 8/7/3 15/7/4 11/7/3
f 16/7/5 3/7/6 14/7/6
f 19/8/7 23/9/7 17/10/7
f 28/11/8 32/12/8 26/13/8
f 33/14/9 24/15/9 22/16/9
f 38/17/9 27/18/9 25/19/9
f 44/20/2 29/21/2 42/22/2
f 47/23/2 18/24/2 45/25/2
f 41/26/10 37/27/10 43/28/10
f 34/29/8 46/30/8 36/31/8
f 49/32/11 55/33/11 58/34/11
f 66/35/12 72/33/12 63/36/12
f 77/37/13 57/38/1 74/39/1
f 81/40/13 65/41/13 62/42/13
f 89/43/14 67/41/15 86/44/15
f 95/45/16 51/46/16 92/47/16
f 88/48/11 82/49/11 79/50/11
f 75/51/12 93/49/12 78/52/12
f 94/53/2 56/53/2 53/53/2
f 64/53/2 87/53/2 68/53/2
f 97/10/7 101/54/7 103/9/7
f 109/11/8 113/12/8 107/13/8
f 117/20/2 110/21/2 115/22/2
f 120/23/2 98/24/2 118/25/2
f 114/26/7 124/27/7 116/28/7
f 130/29/17 119/30/17 127/31/17
f 133/55/18 136/56/18 138/57/18
f 142/58/19 132/59/20 139/60/19
f 143/7/21 137/7/22 148/7/22
f 134/7/23 144/7/23 149/7/23
f 125/61/9 108/62/9 106/63/9
f 129/29/9 105/9/9 102/54/9
f 141/7/24 150/7/24 146/7/24
f 59/64/9 91/65/9 50/66/9
f 61/67/9 90/68/9 80/69/9
f 2/1/1 4/70/1 7/2/1
f 13/4/2 1/71/2 9/5/2
f 8/7/3 6/7/4 15/7/4
f 16/7/5 5/7/5 3/7/6
f 19/8/7 21/54/7 23/9/7
f 28/11/8 30/72/8 32/12/8
f 33/14/9 35/73/9 24/15/9
f 38/17/9 40/74/9 27/18/9
f 44/20/2 31/75/2 29/21/2
f 47/23/2 20/76/2 18/24/2
f 41/26/10 39/77/10 37/27/10
f 34/29/8 48/78/8 46/30/8
f 49/32/11 52/36/11 55/33/11
f 66/35/12 69/79/12 72/33/12
f 77/37/13 60/80/13 57/38/1
f 81/40/13 84/81/13 65/41/13
f 89/43/14 70/82/14 67/41/15
f 95/45/16 54/38/16 51/46/16
f 88/48/11 85/83/11 82/49/11
f 75/51/12 96/50/12 93/49/12
f 94/53/2 73/53/2 56/53/2
f 64/53/2 83/53/2 87/53/2
f 97/10/7 99/8/7 101/54/7
f 109/11/8 111/72/8 113/12/8
f 117/20/2 112/75/2 110/21/2
f 120/23/2 100/76/2 98/24/2
f 114/26/7 122/77/7 124/27/7
f 130/29/17 121/78/17 119/30/17
f 133/55/18 135/84/18 136/56/18
f 142/58/19 145/85/20 132/59/20
f 143/7/21 140/7/25 137/7/22
f 134/7/23 131/7/23 144/7/23
f 125/61/9 123/86/9 108/62/9
f 128/29/9 126/31/9 104/9/9
f 141/7/24 147/7/24 150/7/24
f 59/64/9 76/87/9 91/65/9
f 61/67/9 71/88/9 90/68/9
