{
    "asset" : {
        "generator" : "Khronos glTF Blender I/O v3.3.36",
        "version" : "2.0"
    },
    "scene" : 0,
    "scenes" : [
        {
            "name" : "Scene",
            "nodes" : [
                0
            ]
        }
    ],
    "nodes" : [
        {
            "mesh" : 0,
            "name" : "landscape_entertainments_004",
            "rotation" : [
                0.7071068286895752,
                0,
                0,
                0.7071067094802856
            ]
        }
    ],
    "meshes" : [
        {
            "name" : "landscape_entertainments_004",
            "primitives" : [
                {
                    "attributes" : {
                        "POSITION" : 0,
                        "NORMAL" : 1,
                        "TANGENT" : 2,
                        "TEXCOORD_0" : 3
                    },
                    "indices" : 4
                }
            ]
        }
    ],
    "accessors" : [
        {
            "bufferView" : 0,
            "componentType" : 5126,
            "count" : 2325,
            "max" : [
                8.127107620239258,
                12.725449562072754,
                7.999998092651367
            ],
            "min" : [
                -7.999999046325684,
                -0.19552500545978546,
                -8.000000953674316
            ],
            "type" : "VEC3"
        },
        {
            "bufferView" : 1,
            "componentType" : 5126,
            "count" : 2325,
            "type" : "VEC3"
        },
        {
            "bufferView" : 2,
            "componentType" : 5126,
            "count" : 2325,
            "type" : "VEC4"
        },
        {
            "bufferView" : 3,
            "componentType" : 5126,
            "count" : 2325,
            "type" : "VEC2"
        },
        {
            "bufferView" : 4,
            "componentType" : 5123,
            "count" : 3831,
            "type" : "SCALAR"
        }
    ],
    "bufferViews" : [
        {
            "buffer" : 0,
            "byteLength" : 27900,
            "byteOffset" : 0,
            "target" : 34962
        },
        {
            "buffer" : 0,
            "byteLength" : 27900,
            "byteOffset" : 27900,
            "target" : 34962
        },
        {
            "buffer" : 0,
            "byteLength" : 37200,
            "byteOffset" : 55800,
            "target" : 34962
        },
        {
            "buffer" : 0,
            "byteLength" : 18600,
            "byteOffset" : 93000,
            "target" : 34962
        },
        {
            "buffer" : 0,
            "byteLength" : 7662,
            "byteOffset" : 111600,
            "target" : 34963
        }
    ],
    "buffers" : [
        {
            "byteLength" : 119264,
            "uri" : "data:application/octet-stream;base64,"
        }
    ]
}
