# Blender 4.3.2
# www.blender.org
mtllib plant_011.mtl
o plant_011
v 0.214824 2.319473 0.214818
v 0.214824 2.319473 0.214818
v 0.214824 2.319473 0.214818
v 0.214824 2.319473 -0.214817
v 0.214824 2.319473 -0.214817
v 0.214824 2.319473 -0.214817
v -0.214824 2.319472 -0.214817
v -0.214824 2.319472 -0.214817
v -0.214824 2.319472 -0.214817
v -0.214824 2.319472 0.214818
v -0.214824 2.319472 0.214818
v -0.214824 2.319472 0.214818
v -0.394413 0.452421 0.394412
v -0.394413 0.452421 0.394412
v 0.394415 0.452423 0.394412
v 0.394415 0.452423 0.394412
v 0.394413 0.452423 -0.394412
v 0.394413 0.452423 -0.394412
v -0.394415 0.452421 -0.394412
v -0.394415 0.452421 -0.394412
v -0.073883 1.205309 0.073885
v -0.073883 1.205309 0.073885
v -0.073883 0.027653 0.073885
v -0.073883 0.027653 0.073885
v 0.073890 0.027640 0.073885
v 0.073890 0.027640 0.073885
v 0.073890 1.205316 0.073885
v 0.073890 1.205316 0.073885
v 0.073883 0.027640 -0.073885
v 0.073883 0.027640 -0.073885
v 0.073883 1.205316 -0.073884
v 0.073883 1.205316 -0.073884
v -0.073890 1.205309 -0.073884
v -0.073890 1.205309 -0.073884
v -0.073890 0.027653 -0.073885
v -0.073890 0.027653 -0.073885
v -0.527620 0.204475 0.527621
v -0.527620 0.204475 0.527621
v -0.527620 0.204475 0.527621
v -0.527620 0.000003 0.527621
v -0.527620 0.000003 0.527621
v 0.527614 -0.000003 0.527621
v 0.527614 -0.000003 0.527621
v 0.527614 0.204470 0.527621
v 0.527614 0.204470 0.527621
v 0.527614 0.204470 0.527621
v 0.527614 0.204470 0.527621
v 0.527620 -0.000003 -0.527621
v 0.527620 -0.000003 -0.527621
v 0.527620 0.204470 -0.527621
v 0.527620 0.204470 -0.527621
v 0.527620 0.204470 -0.527621
v -0.527614 0.204476 -0.527621
v -0.527614 0.204476 -0.527621
v -0.527614 0.204476 -0.527621
v -0.527614 0.204476 -0.527621
v -0.527614 0.000003 -0.527621
v -0.527614 0.000003 -0.527621
v 0.427174 0.206295 0.427165
v 0.427162 0.206295 -0.427165
v -0.427174 0.206284 -0.427165
v -0.427162 0.206283 0.427165
vn -0.0000 1.0000 -0.0000
vn -0.0000 0.0957 0.9954
vn 0.9954 0.0957 -0.0000
vn -0.9954 0.0957 -0.0000
vn -0.0000 0.0958 -0.9954
vn -0.0000 0.0957 -0.9954
vn -0.0000 -0.0000 1.0000
vn 1.0000 -0.0000 -0.0000
vn -1.0000 -0.0000 -0.0000
vn -0.0000 -0.0000 -1.0000
vt 0.369296 -0.771329
vt 0.395585 -0.745040
vt 0.369296 -0.745040
vt 0.383867 -0.788008
vt 0.357577 -0.788008
vt 0.357577 -0.814298
vt 0.383867 -0.814298
vt 0.447266 -0.449219
vt 0.404527 -0.491958
vt 0.404527 -0.449219
vt 0.490005 -0.449219
vt 0.447266 -0.491958
vt 0.447266 -0.406480
vt 0.591949 -0.384789
vt 0.565660 -0.384789
vt 0.565660 -0.411079
vt 0.591949 -0.411079
vt 0.441725 -0.413710
vt 0.465512 -0.416213
vt 0.468015 -0.413710
vt 0.441725 -0.440000
vt 0.444228 -0.416213
vt 0.261305 -0.442148
vt 0.282589 -0.420864
vt 0.261305 -0.420864
vt 0.395585 -0.771329
vt 0.490005 -0.491958
vt 0.404527 -0.406480
vt 0.490005 -0.406480
vt 0.282589 -0.442148
s 1
f 4/1/1 11/2/1 1/3/1
f 12/4/2 15/5/2 2/5/2
f 16/5/3 6/6/3 3/5/3
f 7/7/4 13/4/4 10/4/4
f 17/6/5 9/7/6 5/6/6
f 24/8/7 27/9/7 22/10/7
f 26/11/8 32/12/8 28/8/8
f 35/10/9 21/13/9 33/8/9
f 31/13/10 36/11/10 34/8/10
f 41/14/7 44/15/7 38/14/7
f 43/15/8 52/16/8 47/15/8
f 57/17/9 37/14/9 53/17/9
f 50/16/10 58/17/10 54/17/10
f 45/18/1 55/19/1 39/20/1
f 51/21/1 56/22/1 46/18/1
f 60/23/1 62/24/1 59/25/1
f 4/1/1 8/26/1 11/2/1
f 12/4/2 14/4/2 15/5/2
f 16/5/3 18/6/3 6/6/3
f 7/7/4 19/7/4 13/4/4
f 17/6/5 20/7/5 9/7/6
f 24/8/7 25/12/7 27/9/7
f 26/11/8 30/27/8 32/12/8
f 35/10/9 23/28/9 21/13/9
f 31/13/10 29/29/10 36/11/10
f 41/14/7 42/15/7 44/15/7
f 43/15/8 49/16/8 52/16/8
f 57/17/9 40/14/9 37/14/9
f 50/16/10 48/16/10 58/17/10
f 60/23/1 61/30/1 62/24/1
