{
    "asset" : {
        "generator" : "Khronos glTF Blender I/O v3.3.36",
        "version" : "2.0"
    },
    "scene" : 0,
    "scenes" : [
        {
            "name" : "Scene",
            "nodes" : [
                0
            ]
        }
    ],
    "nodes" : [
        {
            "mesh" : 0,
            "name" : "plant_008",
            "rotation" : [
                0.7071068286895752,
                0,
                0,
                0.7071067094802856
            ]
        }
    ],
    "meshes" : [
        {
            "name" : "plant_008",
            "primitives" : [
                {
                    "attributes" : {
                        "POSITION" : 0,
                        "NORMAL" : 1,
                        "TANGENT" : 2,
                        "TEXCOORD_0" : 3
                    },
                    "indices" : 4
                }
            ]
        }
    ],
    "accessors" : [
        {
            "bufferView" : 0,
            "componentType" : 5126,
            "count" : 535,
            "max" : [
                0.7871739864349365,
                0.7703319787979126,
                0.25974100828170776
            ],
            "min" : [
                -0.7871760129928589,
                -4.999999873689376e-06,
                -0.2597399950027466
            ],
            "type" : "VEC3"
        },
        {
            "bufferView" : 1,
            "componentType" : 5126,
            "count" : 535,
            "type" : "VEC3"
        },
        {
            "bufferView" : 2,
            "componentType" : 5126,
            "count" : 535,
            "type" : "VEC4"
        },
        {
            "bufferView" : 3,
            "componentType" : 5126,
            "count" : 535,
            "type" : "VEC2"
        },
        {
            "bufferView" : 4,
            "componentType" : 5123,
            "count" : 843,
            "type" : "SCALAR"
        }
    ],
    "bufferViews" : [
        {
            "buffer" : 0,
            "byteLength" : 6420,
            "byteOffset" : 0,
            "target" : 34962
        },
        {
            "buffer" : 0,
            "byteLength" : 6420,
            "byteOffset" : 6420,
            "target" : 34962
        },
        {
            "buffer" : 0,
            "byteLength" : 8560,
            "byteOffset" : 12840,
            "target" : 34962
        },
        {
            "buffer" : 0,
            "byteLength" : 4280,
            "byteOffset" : 21400,
            "target" : 34962
        },
        {
            "buffer" : 0,
            "byteLength" : 1686,
            "byteOffset" : 25680,
            "target" : 34963
        }
    ],
    "buffers" : [
        {
            "byteLength" : 27368,
            "uri" : "data:application/octet-stream;base64,"
        }
    ]
}
