# Blender 4.3.2
# www.blender.org
mtllib road_tile_1x1_001.mtl
o road_tile_1x1_001
v 4.000000 0.000000 1.999999
v -3.999999 0.000000 2.000001
v -3.999999 -0.000001 4.000001
v 4.000001 -0.000001 3.999999
v -4.000001 0.000001 -3.999999
v -4.000000 0.000000 -1.999999
v 3.999999 0.000000 -2.000001
v 3.999999 0.000001 -4.000001
v 3.999999 -0.122926 -2.000001
v -4.000000 -0.122926 -1.999999
v -3.999999 -0.122927 2.000001
v 4.000000 -0.122927 1.999999
v -0.789314 -0.112415 -0.099969
v -3.210686 -0.112415 -0.099968
v -3.210686 -0.112415 0.099970
v -0.789314 -0.112415 0.099969
v 3.210686 -0.112415 -0.099970
v 0.789314 -0.112415 -0.099969
v 0.789314 -0.112415 0.099969
v 3.210686 -0.112415 0.099968
v 4.000000 0.140044 1.963648
v 4.000000 0.140044 1.963648
v -3.999999 0.140044 1.963650
v -3.999999 0.140044 1.963650
v -3.999999 0.140044 2.145761
v -3.999999 0.140044 2.145761
v 4.000000 0.140044 2.145759
v 4.000000 0.140044 2.145759
v -4.000000 0.140045 -1.963648
v -4.000000 0.140045 -1.963648
v 3.999999 0.140045 -1.963650
v 3.999999 0.140045 -1.963650
v 3.999999 0.140045 -2.145761
v 3.999999 0.140045 -2.145761
v -4.000000 0.140045 -2.145759
v -4.000000 0.140045 -2.145759
v -4.000000 -0.122926 -1.963648
v 3.999999 -0.122926 -1.963650
v 4.000000 -0.122927 1.963648
v -3.999999 -0.122927 1.963650
v -3.999999 -0.137796 2.145761
v 4.000000 -0.137796 2.145759
v 3.999999 -0.137796 -2.145761
v -4.000000 -0.137796 -2.145759
v 3.892150 4.750587 -1.113788
v 3.892150 4.750587 -1.113788
v 3.892958 4.880626 -1.138190
v 3.892958 4.880626 -1.138190
v 3.892958 4.880626 -1.138190
v 3.892958 4.880626 -1.138190
v 3.892958 5.021311 -0.371496
v 3.892958 5.021311 -0.371496
v 3.892958 5.021311 -0.371496
v 3.892958 5.021311 -0.371496
v 3.892150 4.891080 -0.348139
v 3.892150 4.891080 -0.348139
v 3.697776 4.909145 -0.249694
v 3.697776 4.909145 -0.249694
v 3.697776 5.039550 -0.272683
v 3.697776 5.039550 -0.272683
v 3.697776 5.039550 -0.272683
v 3.697776 5.039550 -0.272683
v 3.502593 5.021311 -0.371496
v 3.502593 5.021311 -0.371496
v 3.502593 5.021311 -0.371496
v 3.502593 5.021311 -0.371496
v 3.503401 4.891080 -0.348140
v 3.503401 4.891080 -0.348140
v 3.697776 5.109543 -0.380346
v 3.697776 5.109543 -0.380346
v 3.697776 5.109543 -0.380346
v 3.697776 4.966252 -1.161243
v 3.697776 4.966252 -1.161243
v 3.697776 4.966252 -1.161243
v 3.571918 4.952559 -1.112285
v 3.571918 4.952559 -1.112285
v 3.571918 4.952559 -1.112285
v 3.571918 5.079361 -0.421253
v 3.571918 5.079361 -0.421253
v 3.571918 5.079361 -0.421253
v 3.854223 4.707877 -0.710234
v 3.854223 4.707877 -0.710234
v 3.843869 4.796462 -0.392847
v 3.843869 4.796462 -0.392847
v 3.843869 4.796462 -0.392847
v 3.697776 4.797351 -0.305928
v 3.697776 4.797351 -0.305928
v 3.697776 4.797351 -0.305928
v 3.697776 4.683113 -0.705692
v 3.823634 5.079361 -0.421253
v 3.823634 5.079361 -0.421253
v 3.823634 5.079361 -0.421253
v 3.823634 4.952559 -1.112285
v 3.823634 4.952559 -1.112285
v 3.823634 4.952559 -1.112285
v 3.697776 4.732523 -1.212234
v 3.697776 4.732523 -1.212234
v 3.697776 4.862595 -1.237041
v 3.697776 4.862595 -1.237041
v 3.697776 4.862595 -1.237041
v 3.697776 4.862595 -1.237041
v 3.551683 4.796462 -0.392847
v 3.551683 4.796462 -0.392847
v 3.551683 4.796462 -0.392847
v 3.541329 4.707877 -0.710234
v 3.541329 4.707877 -0.710234
v 3.502593 4.880626 -1.138190
v 3.502593 4.880626 -1.138190
v 3.502593 4.880626 -1.138190
v 3.502593 4.880626 -1.138190
v 3.503401 4.750587 -1.113788
v 3.503401 4.750587 -1.113788
v 3.697776 4.742629 -1.194187
v 3.697776 4.742629 -1.194187
v 3.884794 4.759176 -1.098458
v 3.884794 4.759176 -1.098458
v 3.843472 4.678014 -1.038401
v 3.843472 4.678014 -1.038401
v 3.843472 4.678014 -1.038401
v 3.697776 4.647980 -1.119976
v 3.697776 4.647980 -1.119976
v 3.697776 4.647980 -1.119976
v 3.884793 4.893653 -0.365528
v 3.884793 4.893653 -0.365528
v 3.697776 4.912174 -0.270159
v 3.697776 4.912174 -0.270159
v 3.510757 4.759176 -1.098458
v 3.510757 4.759176 -1.098458
v 3.552080 4.678014 -1.038401
v 3.552080 4.678014 -1.038401
v 3.552080 4.678014 -1.038401
v 3.510759 4.893653 -0.365528
v 3.510759 4.893653 -0.365528
v 3.513524 4.824601 -0.731651
v 3.882027 4.824601 -0.731651
v 3.775347 -0.073997 -2.401780
v 3.775347 -0.073997 -2.401780
v 3.775494 4.429519 -2.401174
v 3.775494 4.429519 -2.401174
v 3.775494 4.429519 -2.401174
v 3.775494 4.429519 -2.401174
v 3.738035 4.431842 -2.318726
v 3.738035 4.431842 -2.318726
v 3.738035 4.431842 -2.318726
v 3.738035 4.431842 -2.318726
v 3.738600 -0.073998 -2.319246
v 3.738600 -0.073998 -2.319246
v 3.649291 4.431547 -2.328022
v 3.649291 4.431547 -2.328022
v 3.649291 4.431547 -2.328022
v 3.649291 4.431547 -2.328022
v 3.648751 -0.073998 -2.328690
v 3.648751 -0.073998 -2.328690
v 3.629728 4.429219 -2.416584
v 3.629728 4.429219 -2.416584
v 3.629728 4.429219 -2.416584
v 3.629728 4.429219 -2.416584
v 3.629967 -0.073997 -2.417060
v 3.629967 -0.073997 -2.417060
v 3.708208 -0.073997 -2.462232
v 3.708208 -0.073997 -2.462232
v 3.708271 4.428501 -2.462291
v 3.708271 4.428501 -2.462291
v 3.708271 4.428501 -2.462291
v 3.708271 4.428501 -2.462291
v 3.629938 4.876468 -1.033990
v 3.629938 4.876468 -1.033990
v 3.708216 4.921014 -1.041871
v 3.708216 4.921014 -1.041871
v 3.708223 4.702521 -2.159365
v 3.708223 4.702521 -2.159365
v 3.708223 4.702521 -2.159365
v 3.708223 4.702521 -2.159365
v 3.629906 4.657861 -2.151690
v 3.629906 4.657861 -2.151690
v 3.629906 4.657861 -2.151690
v 3.629906 4.657861 -2.151690
v 3.775363 4.861412 -1.031326
v 3.775363 4.861412 -1.031326
v 3.775381 4.642777 -2.149097
v 3.775381 4.642777 -2.149097
v 3.775381 4.642777 -2.149097
v 3.775381 4.642777 -2.149097
v 3.648859 4.570755 -2.136862
v 3.648859 4.570755 -2.136862
v 3.648859 4.570755 -2.136862
v 3.648859 4.570755 -2.136862
v 3.648789 4.789477 -1.018601
v 3.648789 4.789477 -1.018601
v 3.738460 4.561460 -2.135273
v 3.738460 4.561460 -2.135273
v 3.738460 4.561460 -2.135273
v 3.738460 4.561460 -2.135273
v 3.738567 4.780192 -1.016959
v 3.738567 4.780192 -1.016959
v 3.650207 4.522940 -2.290379
v 3.650207 4.522940 -2.290379
v 3.650207 4.522940 -2.290379
v 3.650207 4.522940 -2.290379
v 3.737020 4.518068 -2.282733
v 3.737020 4.518068 -2.282733
v 3.737020 4.518068 -2.282733
v 3.737020 4.518068 -2.282733
v 3.629672 4.619968 -2.299388
v 3.629672 4.619968 -2.299388
v 3.708288 4.663633 -2.313206
v 3.708288 4.663633 -2.313206
v 3.775516 4.605310 -2.294771
v 3.775516 4.605310 -2.294771
v 3.775516 4.605310 -2.294771
v 3.775951 4.559579 -2.375708
v 3.775951 4.559579 -2.375708
v 3.775951 4.559579 -2.375708
v 3.708366 4.596336 -2.426229
v 3.708366 4.596336 -2.426229
v 3.708366 4.596336 -2.426229
v 3.708366 4.596336 -2.426229
v 3.629132 4.568840 -2.388430
v 3.629132 4.568840 -2.388430
v 3.629132 4.568840 -2.388430
v 3.629132 4.568840 -2.388430
vn -0.0000 1.0000 -0.0000
vn -0.0000 -0.0000 1.0000
vn -0.0000 -0.0000 -1.0000
vn 1.0000 -0.0060 0.0011
vn -0.4577 0.1543 0.8756
vn -0.4578 0.1542 0.8756
vn 0.4578 0.1543 0.8756
vn 0.4577 0.1543 0.8756
vn 0.4578 0.1542 0.8756
vn -0.0000 0.9836 -0.1805
vn -0.1745 0.9685 -0.1777
vn 0.1562 -0.9498 0.2712
vn -0.0000 -0.9836 0.1804
vn 0.1589 -0.9711 0.1781
vn 0.1745 0.9685 -0.1777
vn 0.4577 -0.1666 -0.8733
vn 0.4578 -0.1667 -0.8733
vn -0.1562 -0.9498 0.2712
vn -0.1589 -0.9711 0.1781
vn -1.0000 -0.0060 0.0011
vn 0.3336 0.5722 -0.7492
vn 0.3421 0.5638 -0.7517
vn 0.3538 0.5521 -0.7550
vn 0.6899 0.7120 -0.1306
vn -0.3336 0.8009 0.4972
vn -0.3421 0.7939 0.5026
vn -0.3538 0.7842 0.5098
vn -0.6899 0.7120 -0.1306
vn -0.3336 0.5722 -0.7492
vn -0.3421 0.5638 -0.7517
vn -0.3243 0.5813 -0.7463
vn 0.3336 0.8009 0.4972
vn 0.3421 0.7939 0.5026
vn 0.3243 0.8084 0.4913
vn -0.4578 -0.1667 -0.8733
vn -0.4577 -0.1666 -0.8733
vn 0.4466 -0.6277 -0.6377
vn 0.4315 -0.5943 -0.6787
vn 0.4160 -0.5611 -0.7156
vn 0.4462 -0.3593 0.8196
vn 0.4313 -0.3141 0.8458
vn 0.4633 -0.4152 0.7829
vn -0.4465 -0.6277 -0.6377
vn -0.4315 -0.5944 -0.6787
vn -0.4638 -0.6673 -0.5827
vn -0.4462 -0.3593 0.8196
vn -0.4313 -0.3141 0.8458
vn -0.4160 -0.2705 0.8682
vn -0.9648 -0.2587 0.0470
vn -0.9244 -0.3762 0.0636
vn -0.9736 -0.2245 0.0406
vn 0.9648 -0.2587 0.0470
vn 0.9255 -0.3715 0.0734
vn 0.9736 -0.2245 0.0406
vn 0.9244 -0.3761 0.0636
vn 0.9108 -0.4052 0.0791
vn -0.9255 -0.3715 0.0734
vn -0.9123 -0.4036 0.0692
vn -0.1566 -0.9841 0.0837
vn -0.0000 -0.9964 0.0845
vn 0.1566 -0.9841 0.0837
vn 0.9094 -0.0389 0.4142
vn 0.9135 -0.0001 0.4068
vn 0.9135 -0.0001 0.4067
vn -0.1045 -0.0001 0.9945
vn -0.1023 -0.1892 0.9766
vn -0.9781 -0.0001 0.2080
vn -0.9761 -0.0219 0.2161
vn -0.9781 -0.0001 0.2079
vn 0.6673 0.0704 -0.7414
vn 0.6692 -0.0000 -0.7431
vn 0.6691 -0.0000 -0.7431
vn -0.5003 0.8497 -0.1661
vn -0.5003 0.8450 -0.1890
vn -0.5009 0.8444 -0.1900
vn 0.6696 0.7249 -0.1618
vn 0.6695 0.7290 -0.1425
vn 0.6702 0.7241 -0.1630
vn -0.9780 -0.2049 0.0401
vn -0.9777 -0.2047 0.0468
vn -0.9777 -0.2045 0.0474
vn -0.1045 -0.9760 0.1909
vn -0.1004 -0.9659 0.2386
vn -0.1045 -0.9660 0.2366
vn 0.9125 -0.3989 0.0903
vn 0.9132 -0.3999 0.0782
vn 0.9131 -0.3974 0.0916
vn -0.4974 0.0846 -0.8634
vn -0.5000 -0.0000 -0.8660
vn -0.5004 0.0883 -0.8613
vn -0.1004 -0.9659 0.2385
vn -0.0873 -0.9526 0.2913
vn -0.1044 -0.9660 0.2367
vn -0.9777 -0.2044 0.0474
vn -0.9766 -0.1996 0.0797
vn -0.9819 -0.1452 0.1220
vn -0.4980 0.8037 -0.3257
vn -0.5021 0.8005 -0.3273
vn 0.6677 0.6907 -0.2776
vn 0.9130 -0.3976 0.0917
vn 0.9114 -0.3829 0.1510
vn 0.9125 -0.3989 0.0902
vn 0.6543 0.6538 -0.3801
vn 0.6475 0.6550 -0.3896
vn 0.6512 0.1545 -0.7430
vn 0.6454 0.1601 -0.7469
vn -0.4837 0.7551 -0.4426
vn -0.4807 0.1805 -0.8581
vn -0.5004 0.0884 -0.8613
vn -0.9796 -0.1154 0.1645
vn -0.9796 -0.1153 0.1646
vn -0.9776 -0.0307 0.2080
vn -0.9818 -0.1452 0.1221
vn -0.0989 -0.3814 0.9191
vn -0.1033 -0.1965 0.9750
vn -0.1024 -0.3842 0.9175
vn 0.9321 -0.2833 0.2258
vn 0.9251 -0.2196 0.3099
vn 0.9168 -0.0580 0.3952
vn -0.4577 0.1544 0.8756
vn 0.4577 0.1544 0.8756
vn -0.0000 -0.9615 0.2748
vn 0.4577 -0.1666 -0.8734
vn 0.3243 0.5813 -0.7463
vn 0.6900 0.7120 -0.1306
vn -0.3243 0.8084 0.4913
vn -0.3538 0.5521 -0.7550
vn 0.3538 0.7842 0.5098
vn -0.4577 -0.1666 -0.8734
vn 0.4638 -0.6673 -0.5827
vn 0.4160 -0.2705 0.8682
vn -0.4160 -0.5611 -0.7156
vn -0.4633 -0.4152 0.7829
vn -0.9108 -0.4052 0.0791
vn 0.9123 -0.4036 0.0692
vn 0.9167 -0.0579 0.3953
vn -0.1033 -0.1963 0.9751
vn 0.6702 0.0742 -0.7384
vn -0.5003 0.8498 -0.1661
vn -0.9780 -0.2048 0.0401
vn -0.1044 -0.9760 0.1909
vn -0.0795 -0.9519 0.2958
vn 0.6718 0.6864 -0.2784
vn 0.9321 -0.2833 0.2257
vn -0.4767 0.7552 -0.4500
vn -0.4747 0.1851 -0.8604
vn -0.1017 -0.1894 0.9766
vt 0.441916 -0.058641
vt 0.373250 -0.041475
vt 0.373250 -0.058641
vt 0.441916 -0.092974
vt 0.373250 -0.110141
vt 0.441916 -0.110141
vt 0.605978 -0.094927
vt 0.537313 -0.060594
vt 0.537313 -0.094927
vt 0.079377 -0.085639
vt 0.054794 -0.078222
vt 0.054794 -0.085639
vt 0.296728 -0.069964
vt 0.228063 -0.069964
vt 0.228063 -0.104297
vt 0.296728 -0.104297
vt 0.466522 -0.119062
vt 0.397857 -0.119062
vt 0.397857 -0.084729
vt 0.466522 -0.084729
vt 0.299101 -0.056825
vt 0.230435 -0.056825
vt 0.230435 -0.091158
vt 0.299101 -0.091158
vt 0.459630 -0.092926
vt 0.465783 -0.074213
vt 0.460066 -0.074278
vt 0.463199 -0.027585
vt 0.457047 -0.032820
vt 0.462764 -0.032884
vt 0.446074 -0.058405
vt 0.447646 -0.051627
vt 0.442534 -0.056988
vt 0.454375 -0.098256
vt 0.445855 -0.078631
vt 0.448689 -0.097197
vt 0.935243 -0.431971
vt 0.929653 -0.441278
vt 0.936524 -0.440999
vt 0.456796 -0.077919
vt 0.459630 -0.096485
vt 0.460066 -0.098256
vt 0.465347 -0.092861
vt 0.922386 -0.432479
vt 0.922780 -0.441541
vt 0.457482 -0.051563
vt 0.463199 -0.051627
vt 0.450656 -0.073887
vt 0.451159 -0.077182
vt 0.450703 -0.058787
vt 0.455124 -0.073887
vt 0.458805 -0.072646
vt 0.458805 -0.054591
vt 0.451186 -0.053044
vt 0.454799 -0.055990
vt 0.442534 -0.077234
vt 0.445700 -0.097975
vt 0.442534 -0.020719
vt 0.448078 -0.027052
vt 0.448078 -0.020738
vt 0.951730 -0.447635
vt 0.947600 -0.451394
vt 0.952147 -0.452734
vt 0.936899 -0.430608
vt 0.928590 -0.429798
vt 0.932922 -0.428159
vt 0.927931 -0.422871
vt 0.928480 -0.427721
vt 0.952101 -0.424726
vt 0.946988 -0.428296
vt 0.951566 -0.429793
vt 0.952101 -0.415759
vt 0.948065 -0.408392
vt 0.946825 -0.416080
vt 0.951939 -0.438714
vt 0.948304 -0.431519
vt 0.946825 -0.439212
vt 0.947939 -0.447173
vt 0.948066 -0.424115
vt 0.924077 -0.450552
vt 0.930714 -0.452734
vt 0.936899 -0.450045
vt 0.432062 -0.103730
vt 0.433041 -0.075671
vt 0.432084 -0.075940
vt 0.434016 -0.103699
vt 0.434038 -0.075909
vt 0.429820 -0.104147
vt 0.415797 -0.066984
vt 0.428719 -0.104310
vt 0.400865 -0.099227
vt 0.415364 -0.062142
vt 0.414264 -0.061973
vt 0.431775 -0.067204
vt 0.430106 -0.104308
vt 0.432062 -0.104310
vt 0.401964 -0.099396
vt 0.416899 -0.066821
vt 0.433019 -0.103461
vt 0.429820 -0.067202
vt 0.433034 -0.084934
vt 0.424411 -0.091868
vt 0.425513 -0.091705
vt 0.430011 -0.091939
vt 0.431966 -0.091941
vt 0.409798 -0.074391
vt 0.432077 -0.085203
vt 0.406431 -0.086978
vt 0.405331 -0.086809
vt 0.431871 -0.079572
vt 0.420104 -0.079426
vt 0.421206 -0.079263
vt 0.434024 -0.094436
vt 0.433026 -0.094197
vt 0.432069 -0.094467
vt 0.441916 -0.041475
vt 0.373250 -0.092974
vt 0.605978 -0.060594
vt 0.079377 -0.078222
vt 0.457482 -0.027521
vt 0.465783 -0.098190
vt 0.459630 -0.076121
vt 0.458733 -0.051848
vt 0.442534 -0.027034
vt 0.928438 -0.428159
vt 0.932922 -0.422118
vt 0.952101 -0.406791
vt 0.952147 -0.429793
vt 0.434031 -0.085172
vt 0.410897 -0.074560
vt 0.429915 -0.079570
s 1
f 2/1/1 4/2/1 1/3/1
f 6/4/1 8/5/1 5/6/1
f 10/7/1 12/8/1 9/9/1
f 14/10/1 16/11/1 13/12/1
f 18/10/1 20/11/1 17/12/1
f 24/13/1 27/14/1 22/14/1
f 31/15/1 36/16/1 29/16/1
f 30/17/2 38/18/2 32/18/2
f 21/19/3 40/20/3 23/20/3
f 26/21/2 42/22/2 28/22/2
f 33/23/3 44/24/3 35/24/3
f 46/25/4 54/26/4 56/27/4
f 57/28/5 65/29/6 68/30/6
f 52/31/7 58/32/8 55/33/9
f 70/34/10 77/35/11 80/36/11
f 83/37/12 89/38/13 81/39/14
f 93/40/15 70/34/10 90/41/15
f 97/42/16 48/43/17 45/25/17
f 89/38/13 104/44/18 106/45/19
f 67/30/20 107/46/20 111/47/20
f 94/40/21 100/48/22 74/49/23
f 92/50/24 49/51/24 95/52/24
f 79/53/25 60/54/26 69/55/27
f 78/36/28 108/56/28 64/57/28
f 76/35/29 99/48/30 110/56/31
f 91/50/32 61/54/33 51/31/34
f 109/58/35 96/59/36 112/60/35
f 115/61/37 122/62/38 114/63/39
f 123/64/40 88/65/41 84/37/42
f 128/66/43 120/67/44 130/68/45
f 133/69/46 86/70/47 125/71/48
f 134/72/49 129/73/50 105/74/51
f 135/75/52 85/76/53 82/77/54
f 135/75/52 119/78/55 116/61/56
f 134/72/49 102/79/57 132/69/58
f 89/38/13 131/80/59 121/81/60
f 117/82/61 89/38/13 121/81/60
f 141/83/62 147/84/63 137/85/64
f 146/84/65 151/86/66 153/87/65
f 152/88/67 155/89/68 158/90/69
f 164/91/70 136/92/71 161/93/72
f 167/94/73 170/95/74 177/96/75
f 172/93/76 178/97/77 180/92/78
f 188/98/79 174/90/80 184/88/81
f 194/99/82 187/87/83 191/84/84
f 182/85/85 195/99/86 192/84/87
f 163/100/88 159/96/89 157/94/90
f 186/87/91 201/101/92 190/84/93
f 185/88/94 204/102/95 196/103/96
f 176/96/75 206/104/97 205/105/98
f 181/92/78 207/106/99 173/93/76
f 193/84/100 209/107/101 183/85/102
f 207/106/99 212/108/103 217/109/104
f 211/108/105 165/91/70 216/109/106
f 206/104/97 220/110/107 205/105/98
f 221/110/108 162/100/88 156/94/109
f 196/103/96 204/102/95 218/111/110
f 219/111/111 149/98/112 197/112/113
f 198/113/114 142/99/115 200/114/116
f 210/107/101 202/114/117 213/115/118
f 213/115/118 144/99/119 140/83/62
f 2/1/1 3/116/1 4/2/1
f 6/4/1 7/117/1 8/5/1
f 10/7/1 11/118/1 12/8/1
f 14/10/1 15/119/1 16/11/1
f 18/10/1 19/119/1 20/11/1
f 24/13/1 25/13/1 27/14/1
f 31/15/1 34/15/1 36/16/1
f 30/17/2 37/17/2 38/18/2
f 21/19/3 39/19/3 40/20/3
f 26/21/2 41/21/2 42/22/2
f 33/23/3 43/23/3 44/24/3
f 46/25/4 50/43/4 54/26/4
f 57/28/5 59/120/120 65/29/6
f 52/31/7 62/54/121 58/32/8
f 70/34/10 73/49/10 77/35/11
f 83/37/12 87/65/122 89/38/13
f 93/40/15 73/49/10 70/34/10
f 97/42/16 101/121/123 48/43/17
f 89/38/13 87/65/122 104/44/18
f 67/30/20 63/29/20 107/46/20
f 94/40/21 47/122/124 100/48/22
f 92/50/24 53/31/125 49/51/24
f 79/53/25 66/123/126 60/54/26
f 78/36/28 75/35/28 108/56/28
f 76/35/29 72/49/127 99/48/30
f 91/50/32 71/55/128 61/54/33
f 109/58/35 98/124/129 96/59/36
f 115/61/37 118/78/130 122/62/38
f 123/64/40 126/125/131 88/65/41
f 128/66/43 113/126/132 120/67/44
f 133/69/46 103/79/133 86/70/47
f 134/72/49 127/127/134 129/73/50
f 135/75/52 124/128/135 85/76/53
f 135/75/52 82/77/54 119/78/55
f 134/72/49 105/74/51 102/79/57
f 89/38/13 106/45/19 131/80/59
f 117/82/61 81/39/14 89/38/13
f 141/83/62 145/99/136 147/84/63
f 146/84/65 143/99/137 151/86/66
f 152/88/67 148/98/112 155/89/68
f 164/91/70 138/97/138 136/92/71
f 167/94/73 168/100/139 170/95/74
f 172/93/76 169/91/77 178/97/77
f 188/98/79 166/89/140 174/90/80
f 194/99/82 189/86/141 187/87/83
f 182/85/85 179/83/86 195/99/86
f 163/100/88 160/95/89 159/96/89
f 186/87/91 199/129/142 201/101/92
f 185/88/94 175/90/80 204/102/95
f 176/96/75 171/95/74 206/104/97
f 181/92/78 208/130/143 207/106/99
f 193/84/100 203/101/144 209/107/101
f 207/106/99 208/130/143 212/108/103
f 211/108/105 139/97/138 165/91/70
f 206/104/97 214/131/145 220/110/107
f 221/110/108 215/131/146 162/100/88
f 219/111/111 154/89/68 149/98/112
f 198/113/114 150/86/147 142/99/115
f 213/115/118 202/114/117 144/99/119
