{
    "asset" : {
        "generator" : "Khronos glTF Blender I/O v3.3.36",
        "version" : "2.0"
    },
    "scene" : 0,
    "scenes" : [
        {
            "name" : "Scene",
            "nodes" : [
                0
            ]
        }
    ],
    "nodes" : [
        {
            "mesh" : 0,
            "name" : "road_tile_1x1_008",
            "rotation" : [
                0.7071068286895752,
                0,
                0,
                0.7071067094802856
            ]
        }
    ],
    "meshes" : [
        {
            "name" : "road_tile_1x1_008",
            "primitives" : [
                {
                    "attributes" : {
                        "POSITION" : 0,
                        "NORMAL" : 1,
                        "TANGENT" : 2,
                        "TEXCOORD_0" : 3
                    },
                    "indices" : 4
                }
            ]
        }
    ],
    "accessors" : [
        {
            "bufferView" : 0,
            "componentType" : 5126,
            "count" : 1439,
            "max" : [
                4,
                5.1095428466796875,
                4
            ],
            "min" : [
                -4.016626834869385,
                -0.13779599964618683,
                -4
            ],
            "type" : "VEC3"
        },
        {
            "bufferView" : 1,
            "componentType" : 5126,
            "count" : 1439,
            "type" : "VEC3"
        },
        {
            "bufferView" : 2,
            "componentType" : 5126,
            "count" : 1439,
            "type" : "VEC4"
        },
        {
            "bufferView" : 3,
            "componentType" : 5126,
            "count" : 1439,
            "type" : "VEC2"
        },
        {
            "bufferView" : 4,
            "componentType" : 5123,
            "count" : 2202,
            "type" : "SCALAR"
        }
    ],
    "bufferViews" : [
        {
            "buffer" : 0,
            "byteLength" : 17268,
            "byteOffset" : 0,
            "target" : 34962
        },
        {
            "buffer" : 0,
            "byteLength" : 17268,
            "byteOffset" : 17268,
            "target" : 34962
        },
        {
            "buffer" : 0,
            "byteLength" : 23024,
            "byteOffset" : 34536,
            "target" : 34962
        },
        {
            "buffer" : 0,
            "byteLength" : 11512,
            "byteOffset" : 57560,
            "target" : 34962
        },
        {
            "buffer" : 0,
            "byteLength" : 4404,
            "byteOffset" : 69072,
            "target" : 34963
        }
    ],
    "buffers" : [
        {
            "byteLength" : 73476,
            "uri" : "data:application/octet-stream;base64,"
        }
    ]
}
