{
    "asset" : {
        "generator" : "Khronos glTF Blender I/O v3.3.36",
        "version" : "2.0"
    },
    "scene" : 0,
    "scenes" : [
        {
            "name" : "Scene",
            "nodes" : [
                0
            ]
        }
    ],
    "nodes" : [
        {
            "mesh" : 0,
            "name" : "store_004",
            "rotation" : [
                0.7071068286895752,
                0,
                0,
                0.7071067094802856
            ]
        }
    ],
    "meshes" : [
        {
            "name" : "store_004",
            "primitives" : [
                {
                    "attributes" : {
                        "POSITION" : 0,
                        "NORMAL" : 1,
                        "TANGENT" : 2,
                        "TEXCOORD_0" : 3
                    },
                    "indices" : 4
                }
            ]
        }
    ],
    "accessors" : [
        {
            "bufferView" : 0,
            "componentType" : 5126,
            "count" : 1436,
            "max" : [
                2.8148000240325928,
                6.151212215423584,
                3.16046404838562
            ],
            "min" : [
                -3.001405954360962,
                -1.9999999494757503e-05,
                -3.1140220165252686
            ],
            "type" : "VEC3"
        },
        {
            "bufferView" : 1,
            "componentType" : 5126,
            "count" : 1436,
            "type" : "VEC3"
        },
        {
            "bufferView" : 2,
            "componentType" : 5126,
            "count" : 1436,
            "type" : "VEC4"
        },
        {
            "bufferView" : 3,
            "componentType" : 5126,
            "count" : 1436,
            "type" : "VEC2"
        },
        {
            "bufferView" : 4,
            "componentType" : 5123,
            "count" : 2538,
            "type" : "SCALAR"
        }
    ],
    "bufferViews" : [
        {
            "buffer" : 0,
            "byteLength" : 17232,
            "byteOffset" : 0,
            "target" : 34962
        },
        {
            "buffer" : 0,
            "byteLength" : 17232,
            "byteOffset" : 17232,
            "target" : 34962
        },
        {
            "buffer" : 0,
            "byteLength" : 22976,
            "byteOffset" : 34464,
            "target" : 34962
        },
        {
            "buffer" : 0,
            "byteLength" : 11488,
            "byteOffset" : 57440,
            "target" : 34962
        },
        {
            "buffer" : 0,
            "byteLength" : 5076,
            "byteOffset" : 68928,
            "target" : 34963
        }
    ],
    "buffers" : [
        {
            "byteLength" : 74004,
            "uri" : "data:application/octet-stream;base64,"
        }
    ]
}
