{
    "asset" : {
        "generator" : "Khronos glTF Blender I/O v3.3.36",
        "version" : "2.0"
    },
    "scene" : 0,
    "scenes" : [
        {
            "name" : "Scene",
            "nodes" : [
                0
            ]
        }
    ],
    "nodes" : [
        {
            "mesh" : 0,
            "name" : "transport_cool_001_transport_cool_001.001",
            "rotation" : [
                0.7071068286895752,
                0,
                0,
                0.7071067094802856
            ]
        }
    ],
    "meshes" : [
        {
            "name" : "transport_cool_001_transport_cool_001.001",
            "primitives" : [
                {
                    "attributes" : {
                        "POSITION" : 0,
                        "NORMAL" : 1,
                        "TANGENT" : 2,
                        "TEXCOORD_0" : 3
                    },
                    "indices" : 4
                }
            ]
        }
    ],
    "accessors" : [
        {
            "bufferView" : 0,
            "componentType" : 5126,
            "count" : 1596,
            "max" : [
                0.7389199733734131,
                0.9848970174789429,
                1.7926369905471802
            ],
            "min" : [
                -0.7389199733734131,
                -0.0025049999821931124,
                -1.5465439558029175
            ],
            "type" : "VEC3"
        },
        {
            "bufferView" : 1,
            "componentType" : 5126,
            "count" : 1596,
            "type" : "VEC3"
        },
        {
            "bufferView" : 2,
            "componentType" : 5126,
            "count" : 1596,
            "type" : "VEC4"
        },
        {
            "bufferView" : 3,
            "componentType" : 5126,
            "count" : 1596,
            "type" : "VEC2"
        },
        {
            "bufferView" : 4,
            "componentType" : 5123,
            "count" : 2457,
            "type" : "SCALAR"
        }
    ],
    "bufferViews" : [
        {
            "buffer" : 0,
            "byteLength" : 19152,
            "byteOffset" : 0,
            "target" : 34962
        },
        {
            "buffer" : 0,
            "byteLength" : 19152,
            "byteOffset" : 19152,
            "target" : 34962
        },
        {
            "buffer" : 0,
            "byteLength" : 25536,
            "byteOffset" : 38304,
            "target" : 34962
        },
        {
            "buffer" : 0,
            "byteLength" : 12768,
            "byteOffset" : 63840,
            "target" : 34962
        },
        {
            "buffer" : 0,
            "byteLength" : 4914,
            "byteOffset" : 76608,
            "target" : 34963
        }
    ],
    "buffers" : [
        {
            "byteLength" : 81524,
            "uri" : "data:application/octet-stream;base64,"
        }
    ]
}
